<?xml version="1.0" encoding="UTF-8" standalone="no"?>
<!-- Created with Inkscape (http://www.inkscape.org/) -->

<svg
   xmlns:dc="http://purl.org/dc/elements/1.1/"
   xmlns:cc="http://creativecommons.org/ns#"
   xmlns:rdf="http://www.w3.org/1999/02/22-rdf-syntax-ns#"
   xmlns:svg="http://www.w3.org/2000/svg"
   xmlns="http://www.w3.org/2000/svg"
   xmlns:sodipodi="http://sodipodi.sourceforge.net/DTD/sodipodi-0.dtd"
   xmlns:inkscape="http://www.inkscape.org/namespaces/inkscape"
   width="123"
   height="59"
   viewBox="0 0 32.543749 15.610417"
   version="1.1"
   id="svg8198"
   inkscape:version="0.92.0 unknown"
   sodipodi:docname="inkscape.svg"
   inkscape:export-filename="/usr/share/sundaramenu/Themes/Menu/Windows8/inkscape.png"
   inkscape:export-xdpi="96"
   inkscape:export-ydpi="96">
  <defs
     id="defs8192" />
  <sodipodi:namedview
     id="base"
     pagecolor="#ffffff"
     bordercolor="#666666"
     borderopacity="1.0"
     inkscape:pageopacity="0.0"
     inkscape:pageshadow="2"
     inkscape:zoom="2.8"
     inkscape:cx="66.178531"
     inkscape:cy="-1.4296279"
     inkscape:document-units="mm"
     inkscape:current-layer="layer1"
     showgrid="false"
     units="px"
     inkscape:snap-page="true"
     inkscape:snap-global="false"
     inkscape:window-width="1366"
     inkscape:window-height="699"
     inkscape:window-x="0"
     inkscape:window-y="0"
     inkscape:window-maximized="1" />
  <metadata
     id="metadata8195">
    <rdf:RDF>
      <cc:Work
         rdf:about="">
        <dc:format>image/svg+xml</dc:format>
        <dc:type
           rdf:resource="http://purl.org/dc/dcmitype/StillImage" />
        <dc:title></dc:title>
      </cc:Work>
    </rdf:RDF>
  </metadata>
  <g
     inkscape:label="Layer 1"
     inkscape:groupmode="layer"
     id="layer1"
     transform="translate(0,-281.38957)">
    <path
       style="fill:#000000;stroke-width:0.07815444"
       d=""
       id="path8213"
       inkscape:connector-curvature="0" />
    <path
       style="fill:#000000;stroke-width:0.07815444"
       d=""
       id="path8211"
       inkscape:connector-curvature="0" />
    <rect
       style="fill:#000000;fill-opacity:1;stroke:none;stroke-width:0.26458332"
       id="rect8241"
       width="32.543751"
       height="15.610416"
       x="0"
       y="281.38956" />
    <text
       xml:space="preserve"
       style="font-style:normal;font-variant:normal;font-weight:normal;font-stretch:normal;font-size:10.58333302px;line-height:6.49335146px;font-family:'Khmer UI';-inkscape-font-specification:'Khmer UI';letter-spacing:0px;word-spacing:0px;fill:#000000;fill-opacity:1;stroke:none;stroke-width:0.26458332"
       x="2.5513394"
       y="295.01562"
       id="text8245"><tspan
         sodipodi:role="line"
         id="tspan8243"
         x="2.5513394"
         y="295.01562"
         style="font-size:3.17499995px;fill:#ffffff;stroke-width:0.26458332">Inkscape</tspan></text>
    <path
       style="fill:#ffffff;stroke-width:0.03682084"
       d="m 16.945419,292.2191 c 0.24079,-0.08 0.572312,-0.25657 0.644169,-0.34315 0.06598,-0.0795 0.02272,-0.15295 -0.138552,-0.23522 -0.210309,-0.10729 -0.251095,-0.16836 -0.182423,-0.27318 0.06233,-0.0951 0.221369,-0.18184 0.707789,-0.38596 0.346881,-0.14556 0.637238,-0.3216 0.884321,-0.53613 l 0.146662,-0.12733 -0.09205,-0.10091 c -0.05063,-0.0555 -0.208038,-0.17555 -0.349798,-0.26677 -0.335841,-0.21611 -0.42344,-0.29786 -0.42344,-0.39516 0,-0.16836 0.204577,-0.27035 0.809748,-0.4037 0.723921,-0.15951 1.441736,-0.4316 1.751269,-0.66381 0.06184,-0.0464 0.143305,-0.15281 0.18104,-0.23649 0.06145,-0.13627 0.06393,-0.17754 0.02379,-0.39536 -0.02465,-0.13378 -0.07875,-0.31135 -0.12023,-0.39462 -0.04886,-0.0981 -0.751593,-0.8283 -1.995676,-2.07374 -2.136883,-2.13922 -2.077996,-2.09094 -2.546217,-2.08779 -0.203977,0.002 -0.296152,0.0218 -0.44185,0.0978 -0.247654,0.12923 -4.024551,3.91394 -4.124748,4.13329 -0.03701,0.081 -0.06853,0.2125 -0.07005,0.29222 -0.0024,0.1254 0.01435,0.15659 0.124243,0.2314 0.06986,0.0476 0.392963,0.16995 0.718007,0.27197 1.491028,0.46797 1.498012,0.47556 0.775094,0.84293 -0.45383,0.23062 -0.51058,0.28796 -0.403482,0.40764 0.09407,0.10513 0.272625,0.18087 1.029436,0.43665 0.688652,0.23274 0.957548,0.34291 1.057254,0.43314 0.115988,0.10497 0.08159,0.24568 -0.112286,0.45939 -0.233478,0.25735 -0.265292,0.31837 -0.218993,0.41998 0.05098,0.11189 0.172715,0.15944 0.521641,0.2038 0.551481,0.0701 0.664347,0.14283 0.666055,0.42926 8.7e-4,0.1535 0.01301,0.1771 0.124003,0.24192 0.06765,0.0395 0.175345,0.085 0.239335,0.1012 0.166833,0.0422 0.558823,0.003 0.815942,-0.0833 z m -1.196677,-2.82679 c -0.584021,-0.12106 -0.909492,-0.22485 -0.996924,-0.31792 -0.04589,-0.0489 -0.07639,-0.0959 -0.06777,-0.1045 0.0086,-0.009 0.247563,0.0418 0.530978,0.11203 0.283416,0.0702 0.628512,0.13773 0.766881,0.14999 0.222078,0.0197 0.255541,0.0327 0.285361,0.11116 0.01858,0.0489 0.03379,0.096 0.03379,0.10486 0,0.0325 -0.247861,0.008 -0.552313,-0.0556 z m -1.656938,-3.50181 c 0,-0.29857 0.03934,-0.39351 0.296777,-0.71618 0.29011,-0.36363 0.575779,-0.61836 1.153422,-1.02847 0.421105,-0.29897 0.57538,-0.38914 0.665877,-0.38914 0.13641,0 0.170086,0.0226 1.391827,0.9317 0.782129,0.58202 1.00787,0.78753 0.939822,0.85558 -0.01076,0.0107 -0.23074,-0.0802 -0.488852,-0.20225 -0.258111,-0.122 -0.480352,-0.21497 -0.493868,-0.20662 -0.01352,0.009 -0.02864,0.0703 -0.0336,0.13766 -0.01282,0.17382 -0.07517,0.55265 -0.09408,0.57156 -0.0087,0.009 -0.133471,-0.0433 -0.277173,-0.11568 l -0.261274,-0.13158 -0.423958,0.28236 c -0.233176,0.1553 -0.432661,0.27366 -0.443299,0.26301 -0.01064,-0.0106 -0.08454,-0.24746 -0.164216,-0.52629 -0.07968,-0.27881 -0.15273,-0.51479 -0.162332,-0.5244 -0.0096,-0.01 -0.04083,0.0381 -0.0694,0.10619 -0.237768,0.56601 -0.335531,0.79002 -0.354109,0.8114 -0.01836,0.0212 -0.979555,0.14072 -1.131071,0.14072 -0.038,0 -0.05049,-0.0642 -0.05049,-0.25957 z m 5.280032,5.4095 c 0.123105,-0.0561 0.143379,-0.12516 0.07535,-0.25671 -0.108706,-0.21022 -0.426069,-0.32602 -0.534709,-0.19512 -0.079,0.0952 -0.05959,0.29592 0.03873,0.40059 0.0963,0.10249 0.26344,0.12286 0.420628,0.0512 z m -5.30582,-0.0918 c 0.20267,-0.10319 0.467638,-0.31206 0.467638,-0.36865 0,-0.0604 -0.270344,-0.19203 -0.456675,-0.22227 -0.1415,-0.0229 -0.291573,0.0453 -0.432094,0.19657 -0.149151,0.16055 -0.162962,0.25284 -0.05412,0.36168 0.110251,0.11025 0.297582,0.12313 0.475254,0.0327 z m 6.28533,-0.68725 c 0.05063,-0.0256 0.114579,-0.0935 0.142113,-0.15096 0.04457,-0.093 0.04215,-0.11505 -0.02199,-0.20144 -0.108805,-0.14653 -0.363648,-0.19994 -0.709255,-0.14867 -0.317747,0.0471 -0.452867,0.1069 -0.539029,0.2384 -0.0801,0.12225 -0.04993,0.14725 0.282847,0.23438 0.316066,0.0827 0.711494,0.096 0.845316,0.0283 z"
       id="path11033"
       inkscape:connector-curvature="0"
       sodipodi:nodetypes="cccccccccscccccccccccscccccccccscccccccscccscsccscccccccccccscccccsccsccccccccccccc" />
  </g>
</svg>
