<?xml version="1.0" encoding="UTF-8" standalone="no"?>
<!-- Created with Inkscape (http://www.inkscape.org/) -->

<svg
   xmlns:dc="http://purl.org/dc/elements/1.1/"
   xmlns:cc="http://creativecommons.org/ns#"
   xmlns:rdf="http://www.w3.org/1999/02/22-rdf-syntax-ns#"
   xmlns:svg="http://www.w3.org/2000/svg"
   xmlns="http://www.w3.org/2000/svg"
   xmlns:sodipodi="http://sodipodi.sourceforge.net/DTD/sodipodi-0.dtd"
   xmlns:inkscape="http://www.inkscape.org/namespaces/inkscape"
   width="60"
   height="59"
   viewBox="0 0 15.875 15.610417"
   version="1.1"
   id="svg8837"
   inkscape:version="0.92.0 unknown"
   sodipodi:docname="system-run.svg"
   inkscape:export-filename="/usr/share/sundaramenu/Themes/Menu/Windows8/system-run.png"
   inkscape:export-xdpi="96"
   inkscape:export-ydpi="96">
  <defs
     id="defs8831" />
  <sodipodi:namedview
     id="base"
     pagecolor="#ffffff"
     bordercolor="#666666"
     borderopacity="1.0"
     inkscape:pageopacity="0.0"
     inkscape:pageshadow="2"
     inkscape:zoom="2.8"
     inkscape:cx="83.086924"
     inkscape:cy="-7.8382829"
     inkscape:document-units="mm"
     inkscape:current-layer="layer1"
     showgrid="false"
     units="px"
     inkscape:snap-page="false"
     inkscape:window-width="1366"
     inkscape:window-height="699"
     inkscape:window-x="0"
     inkscape:window-y="0"
     inkscape:window-maximized="1" />
  <metadata
     id="metadata8834">
    <rdf:RDF>
      <cc:Work
         rdf:about="">
        <dc:format>image/svg+xml</dc:format>
        <dc:type
           rdf:resource="http://purl.org/dc/dcmitype/StillImage" />
        <dc:title></dc:title>
      </cc:Work>
    </rdf:RDF>
  </metadata>
  <g
     inkscape:label="Layer 1"
     inkscape:groupmode="layer"
     id="layer1"
     transform="translate(0,-281.38957)">
    <rect
       style="fill:#467be5;fill-opacity:1;stroke:none;stroke-width:0.26458332"
       id="rect8850"
       width="15.875"
       height="15.610416"
       x="0"
       y="281.38956" />
    <path
       inkscape:connector-curvature="0"
       id="path10169"
       d="M 4.819196,310.32364 V 299.7403 h 10.583336 10.583336 v 10.58334 10.58333 H 15.402532 4.819196 Z"
       style="fill:#fcfcfc;stroke-width:0.04134116" />
    <path
       style="fill:#ffffff;stroke-width:0.03836424"
       d="m 9.0825756,286.11135 c 1.6023134,-0.004 2.5331034,-0.003 3.2115464,0.003 0.590037,0.005 0.93963,0.009 1.031934,0.0156 0.09164,0.005 0.131168,0.0101 0.145002,0.0169 0.0014,0.0369 -0.500931,1.4041 -1.129468,3.0737 l -0.879128,2.33437 c -0.135615,0.34346 -0.278462,0.70708 -0.289358,0.71526 v 6.7e-4 c -0.005,0.004 -0.117198,0.006 -0.163862,0.0101 H 6.778768 c -3.7072549,0 -4.3037463,-0.004 -4.3748283,-0.0481 0.0022,-0.0228 0.1086676,-0.31883 0.18792,-0.5436 0.1431975,-0.37965 0.418744,-1.11035 0.9038364,-2.40068 0.5909719,-1.57198 1.1065683,-2.93197 1.1457264,-3.02169 l 0.062423,-0.14369 z m -0.2327868,0.59952 c -1.4465869,-10e-4 -2.8347022,0.0113 -3.2960769,0.0371 -0.011992,9.9e-4 -0.1149616,10e-4 -0.1176934,0.003 -0.00257,9.7e-4 -0.00578,0.005 -0.00846,0.008 -0.017016,0.003 -0.083255,0.004 -0.085182,0.006 -0.071038,0.0939 -1.6181069,4.26234 -1.7498015,4.70581 -3.996e-4,0.001 -0.014105,0.037 -0.014306,0.0377 -3.663e-4,10e-4 3.329e-4,0.003 0,0.004 -0.00313,0.0113 -0.035754,0.0998 -0.035113,0.10142 6.659e-4,10e-4 0.048746,0.003 0.056572,0.005 0.00355,0.004 0.00418,0.0101 0.00846,0.0126 v 6.7e-4 c 0.00316,0.003 0.1807517,0.004 0.2158805,0.005 0.9410597,0.0386 4.1433381,0.0461 5.7585434,0.0201 0.4443841,-0.005 0.6999141,-0.0138 0.8010981,-0.026 0.05109,-0.004 0.149969,-0.008 0.153457,-0.0113 0.07525,-0.0974 1.818449,-4.79572 1.79857,-4.84756 -6.66e-4,-0.003 -0.05345,-0.004 -0.06308,-0.005 -0.01385,-0.0101 -0.0282,-0.0199 -0.04617,-0.0247 -0.05241,-0.0142 -1.061165,-0.0201 -2.220575,-0.0221 -0.3957498,-0.003 -0.7356552,-0.008 -1.1561304,-0.008 z m -0.3693374,1.00333 c 0.8010483,0 1.2952422,0.003 1.6171516,0.009 0.08399,10e-4 0.09351,0.003 0.156058,0.005 0.222069,0.008 0.332441,0.0177 0.332275,0.0338 -2.73e-4,0.0264 -0.240073,0.68688 -0.533199,1.4676 l -0.5331987,1.41949 -2.1132865,0.0101 c -0.7669942,0.004 -1.2921097,0.004 -1.6282064,-0.003 -0.00347,-7e-5 -0.00306,5e-5 -0.00651,0 -0.090853,-10e-4 -0.1340152,-0.004 -0.1976736,-0.006 -0.058939,-0.001 -0.1381174,-0.004 -0.1677623,-0.005 -0.077836,-0.005 -0.1137927,-0.0113 -0.1137927,-0.0189 0,-0.0316 0.7846677,-2.14402 1.0566433,-2.84482 0.024377,-0.0633 0.1613491,-0.0669 2.1314934,-0.0669 z m -0.3836429,0.42135 c -0.036161,0 -0.040771,6.4e-4 -0.075428,6.6e-4 H 6.4835582 l -0.052019,0.10532 c -0.1217527,0.24598 -0.3405801,0.89485 -0.3199189,0.94871 0.019619,0.051 0.2271989,0.0585 1.652915,0.0585 h 1.6308071 l 0.052019,-0.10532 c 0.1217526,-0.24597 0.3405801,-0.89485 0.3199189,-0.9487 -0.00523,-0.0136 -0.029734,-0.0238 -0.08128,-0.0318 -0.00184,-7.9e-4 -0.00196,-0.004 -0.0039,-0.004 -0.00287,-0.001 -0.071938,-0.001 -0.084531,-0.003 -0.06237,-0.005 -0.2117866,-0.009 -0.3361752,-0.0113 -0.293808,-0.005 -0.6854961,-0.009 -1.1645836,-0.009 z m -1.2614693,0.27636 c 4.661e-4,-5e-5 7.99e-4,5e-5 0.0013,0 2.611e-4,-3e-5 3.995e-4,2e-5 6.659e-4,0 0.057685,-0.006 0.1046889,0.003 0.1046889,0.0215 0,0.0697 -0.1242366,0.45256 -0.1619103,0.49874 -0.021657,0.0265 -0.063787,0.0424 -0.1040384,0.0462 -0.024897,-4e-4 -0.044925,-0.003 -0.061123,-0.008 -0.013559,-0.005 -0.025615,-0.0113 -0.031861,-0.0208 -0.010066,-0.0162 0.019273,-0.14097 0.065025,-0.27766 0.072599,-0.21698 0.095904,-0.25048 0.1872697,-0.26074 z"
       id="path10959"
       inkscape:connector-curvature="0"
       sodipodi:nodetypes="cccccccccsccscccscccccccccccccccccccssccccccccccscssccccscccccccscccscccccc" />
  </g>
</svg>
