<?xml version="1.0" encoding="UTF-8" standalone="no"?>
<!-- Created with Inkscape (http://www.inkscape.org/) -->

<svg
   xmlns:dc="http://purl.org/dc/elements/1.1/"
   xmlns:cc="http://creativecommons.org/ns#"
   xmlns:rdf="http://www.w3.org/1999/02/22-rdf-syntax-ns#"
   xmlns:svg="http://www.w3.org/2000/svg"
   xmlns="http://www.w3.org/2000/svg"
   xmlns:sodipodi="http://sodipodi.sourceforge.net/DTD/sodipodi-0.dtd"
   xmlns:inkscape="http://www.inkscape.org/namespaces/inkscape"
   width="123"
   height="59"
   viewBox="0 0 32.543749 15.610417"
   version="1.1"
   id="svg8198"
   inkscape:version="0.92.0 unknown"
   sodipodi:docname="accessories-dictionary.svg"
   inkscape:export-filename="/usr/share/sundaramenu/Themes/Menu/Windows8/inkscape.png"
   inkscape:export-xdpi="96"
   inkscape:export-ydpi="96">
  <defs
     id="defs8192" />
  <sodipodi:namedview
     id="base"
     pagecolor="#ffffff"
     bordercolor="#666666"
     borderopacity="1.0"
     inkscape:pageopacity="0.0"
     inkscape:pageshadow="2"
     inkscape:zoom="3.959798"
     inkscape:cx="77.733432"
     inkscape:cy="21.101848"
     inkscape:document-units="mm"
     inkscape:current-layer="layer1"
     showgrid="false"
     units="px"
     inkscape:snap-page="true"
     inkscape:snap-global="false"
     inkscape:window-width="1366"
     inkscape:window-height="699"
     inkscape:window-x="0"
     inkscape:window-y="0"
     inkscape:window-maximized="1" />
  <metadata
     id="metadata8195">
    <rdf:RDF>
      <cc:Work
         rdf:about="">
        <dc:format>image/svg+xml</dc:format>
        <dc:type
           rdf:resource="http://purl.org/dc/dcmitype/StillImage" />
        <dc:title></dc:title>
      </cc:Work>
    </rdf:RDF>
  </metadata>
  <g
     inkscape:label="Layer 1"
     inkscape:groupmode="layer"
     id="layer1"
     transform="translate(0,-281.38957)">
    <path
       style="fill:#000000;stroke-width:0.07815444"
       d=""
       id="path8213"
       inkscape:connector-curvature="0" />
    <path
       style="fill:#000000;stroke-width:0.07815444"
       d=""
       id="path8211"
       inkscape:connector-curvature="0" />
    <rect
       style="fill:#dec85b;fill-opacity:1;stroke:none;stroke-width:0.26458332"
       id="rect8241"
       width="32.543751"
       height="15.610416"
       x="0"
       y="281.38956" />
    <text
       xml:space="preserve"
       style="font-style:normal;font-variant:normal;font-weight:normal;font-stretch:normal;font-size:10.58333302px;line-height:6.49335146px;font-family:'Khmer UI';-inkscape-font-specification:'Khmer UI';letter-spacing:0px;word-spacing:0px;fill:#000000;fill-opacity:1;stroke:none;stroke-width:0.26458332"
       x="2.5513394"
       y="295.01562"
       id="text8245"><tspan
         sodipodi:role="line"
         id="tspan8243"
         x="2.5513394"
         y="295.01562"
         style="font-size:3.17499995px;fill:#ffffff;stroke-width:0.26458332">Kamus</tspan></text>
    <path
       style="fill:#ffffff;stroke-width:0.06946367"
       d="m 17.550804,287.61092 c 0,-2.42601 -0.01188,-4.41094 -0.02641,-4.41094 -0.01452,0 -0.819436,0.19206 -1.78869,0.42679 -0.969254,0.23474 -1.856056,0.44701 -1.970671,0.47172 l -0.208391,0.0449 -0.01804,3.39675 c -0.01098,2.06806 0.0076,3.42244 0.04767,3.46244 0.04903,0.0491 3.604699,0.96869 3.912429,1.01195 0.02865,0.004 0.0521,-1.97761 0.0521,-4.40363 z m -2.361765,1.44917 c -0.05731,-0.009 -0.283919,-0.0364 -0.50358,-0.0606 -0.354951,-0.0391 -0.387795,-0.0556 -0.29522,-0.14816 0.08522,-0.0852 0.104163,-0.34268 0.104163,-1.41556 0,-1.16502 -0.01325,-1.31882 -0.118779,-1.37787 -0.09363,-0.0524 -0.04582,-0.0785 0.225756,-0.12337 0.189496,-0.0313 0.526676,-0.0576 0.749291,-0.0586 0.378289,-0.002 0.420027,0.015 0.638358,0.25326 0.281091,0.30673 0.402791,0.70193 0.402791,1.30803 0,0.59926 -0.121276,1.00096 -0.390762,1.29433 -0.208376,0.22684 -0.559292,0.36881 -0.812018,0.3285 z m 0.364619,-0.30172 c 0.2827,-0.22236 0.4176,-0.65178 0.417008,-1.32743 -5.52e-4,-0.6452 -0.103187,-0.96558 -0.397996,-1.24253 -0.161124,-0.15137 -0.560477,-0.21105 -0.726344,-0.10853 -0.08179,0.0505 -0.108236,2.68934 -0.02776,2.76982 0.09962,0.0996 0.566004,0.0417 0.735093,-0.0913 z m 4.011592,-1.21691 c 0,-3.88035 -0.0057,-4.06363 -0.126169,-4.06363 -0.177608,0 -0.897565,0.13274 -1.228373,0.22649 l -0.277854,0.0787 0.555709,0.0731 0.55571,0.0731 0.01799,3.58967 0.01799,3.58967 -0.400039,0.044 c -0.65183,0.0717 -0.742844,0.14293 -0.295843,0.23153 0.210127,0.0417 0.522714,0.10504 0.694637,0.14086 0.171922,0.0358 0.351659,0.0685 0.399416,0.0726 0.06856,0.006 0.08683,-0.84762 0.08683,-4.05618 z m -6.286462,0.0685 c 0,-3.35646 -0.0019,-3.40277 -0.138928,-3.40277 -0.136747,0 -0.139211,0.0523 -0.157016,3.33426 -0.01,1.83384 -0.0023,3.37564 0.01716,3.42621 0.01938,0.0505 0.09004,0.0814 0.157016,0.0685 0.114077,-0.022 0.121771,-0.23849 0.121771,-3.42623 z"
       id="path4499"
       inkscape:connector-curvature="0"
       sodipodi:nodetypes="cssccssccccccsccccscccccccccsccccccscsccccsscccc" />
  </g>
</svg>
