<?xml version="1.0" encoding="UTF-8" standalone="no"?>
<!-- Created with Inkscape (http://www.inkscape.org/) -->

<svg
   xmlns:dc="http://purl.org/dc/elements/1.1/"
   xmlns:cc="http://creativecommons.org/ns#"
   xmlns:rdf="http://www.w3.org/1999/02/22-rdf-syntax-ns#"
   xmlns:svg="http://www.w3.org/2000/svg"
   xmlns="http://www.w3.org/2000/svg"
   xmlns:sodipodi="http://sodipodi.sourceforge.net/DTD/sodipodi-0.dtd"
   xmlns:inkscape="http://www.inkscape.org/namespaces/inkscape"
   width="123"
   height="59"
   viewBox="0 0 32.543749 15.610417"
   version="1.1"
   id="svg8198"
   inkscape:version="0.92.0 unknown"
   sodipodi:docname="calculatorctl.svg"
   inkscape:export-filename="/usr/share/sundaramenu/Themes/Menu/Windows8/calculatorctl.png"
   inkscape:export-xdpi="96"
   inkscape:export-ydpi="96">
  <defs
     id="defs8192" />
  <sodipodi:namedview
     id="base"
     pagecolor="#ffffff"
     bordercolor="#666666"
     borderopacity="1.0"
     inkscape:pageopacity="0.0"
     inkscape:pageshadow="2"
     inkscape:zoom="1.4"
     inkscape:cx="132.16977"
     inkscape:cy="-0.98276118"
     inkscape:document-units="mm"
     inkscape:current-layer="layer1"
     showgrid="false"
     units="px"
     inkscape:snap-page="true"
     inkscape:snap-global="false"
     inkscape:window-width="1366"
     inkscape:window-height="699"
     inkscape:window-x="0"
     inkscape:window-y="0"
     inkscape:window-maximized="1" />
  <metadata
     id="metadata8195">
    <rdf:RDF>
      <cc:Work
         rdf:about="">
        <dc:format>image/svg+xml</dc:format>
        <dc:type
           rdf:resource="http://purl.org/dc/dcmitype/StillImage" />
        <dc:title></dc:title>
      </cc:Work>
    </rdf:RDF>
  </metadata>
  <g
     inkscape:label="Layer 1"
     inkscape:groupmode="layer"
     id="layer1"
     transform="translate(0,-281.38957)">
    <path
       style="fill:#000000;stroke-width:0.07815444"
       d=""
       id="path8213"
       inkscape:connector-curvature="0" />
    <path
       style="fill:#000000;stroke-width:0.07815444"
       d=""
       id="path8211"
       inkscape:connector-curvature="0" />
    <rect
       style="fill:#1270b7;fill-opacity:1;stroke:none;stroke-width:0.26458332"
       id="rect8241"
       width="32.543751"
       height="15.610416"
       x="0"
       y="281.38956" />
    <text
       xml:space="preserve"
       style="font-style:normal;font-variant:normal;font-weight:normal;font-stretch:normal;font-size:10.58333302px;line-height:6.49335146px;font-family:'Khmer UI';-inkscape-font-specification:'Khmer UI';letter-spacing:0px;word-spacing:0px;fill:#000000;fill-opacity:1;stroke:none;stroke-width:0.26458332"
       x="2.5513394"
       y="295.01562"
       id="text8245"><tspan
         sodipodi:role="line"
         id="tspan8243"
         x="2.5513394"
         y="295.01562"
         style="font-size:3.17499995px;fill:#ffffff;stroke-width:0.26458332">Kalkulator</tspan></text>
    <path
       style="fill:#ffffff;stroke-width:0.03121913;fill-opacity:1"
       d="m 13.966655,283.22171 h 2.309937 2.305804 c 0.0028,8.5e-4 0.0065,0.002 0.0093,0.003 l 0.153995,0.0816 c 0.176652,0.0932 0.320165,0.24108 0.426331,0.43976 l 0.0708,0.13178 v 3.77755 3.77754 l -0.09198,0.16588 c -0.102703,0.1854 -0.23554,0.31411 -0.432014,0.4191 l -0.131776,0.0708 -2.263425,0.005 c -1.306629,0.003 -2.304587,-0.007 -2.361097,-0.0233 -0.267338,-0.0786 -0.563097,-0.38245 -0.636138,-0.65371 -0.02143,-0.0795 -0.02927,-1.35705 -0.02376,-3.82922 l 0.0083,-3.70985 0.07028,-0.13178 c 0.104987,-0.19647 0.233696,-0.3293 0.419098,-0.43201 z m 0.916223,0.86403 c -0.380063,0.002 -0.625904,0.005 -0.645954,0.01 -0.0401,0.01 -0.106852,0.0545 -0.148312,0.0992 -0.07091,0.0765 -0.07417,0.11946 -0.07441,0.65113 -6.3e-5,0.017 -0.0011,0.0261 -0.0011,0.0439 v 0.004 0.005 0.62218 l 0.09147,0.0909 0.09147,0.092 h 2.07636 2.076876 l 0.08785,-0.0754 0.08733,-0.0754 0.0098,-0.62477 0.0093,-0.62425 -0.09302,-0.10439 -0.0925,-0.10386 -2.024165,-0.009 c -0.556604,-0.002 -1.07101,-0.003 -1.451076,-10e-4 z m 1.393714,2.74247 c -0.23005,0 -0.523555,0.23546 -0.564306,0.45269 -0.0524,0.27929 0.07165,0.55039 0.304374,0.66559 0.44559,0.22056 0.918768,-0.16169 0.824238,-0.66559 -0.04075,-0.21723 -0.334256,-0.45269 -0.564306,-0.45269 z m -1.64021,0.007 c -0.06188,-0.005 -0.124265,7.4e-4 -0.183968,0.0186 -0.157377,0.0472 -0.340426,0.20337 -0.396875,0.33848 -0.116676,0.27925 0.0078,0.62125 0.273886,0.75293 0.215958,0.10687 0.490882,0.0731 0.661974,-0.0816 0.183166,-0.16563 0.235361,-0.5032 0.112139,-0.72244 -0.09932,-0.17671 -0.281512,-0.29028 -0.467156,-0.30592 z m 3.383774,0.006 c -0.316685,-0.0356 -0.634748,0.20497 -0.635106,0.57206 -2.51e-4,0.26167 0.119235,0.45275 0.344168,0.55035 0.136869,0.059 0.31541,0.0618 0.444934,0.006 0.122428,-0.0525 0.287856,-0.22238 0.332795,-0.34158 0.08023,-0.21281 -5.3e-5,-0.50026 -0.182417,-0.65371 -0.09347,-0.0786 -0.198813,-0.12147 -0.304374,-0.13332 z m -3.439583,1.64538 c -0.17944,0.002 -0.359659,0.0858 -0.476975,0.27078 -0.196397,0.30969 -0.07593,0.69155 0.268719,0.85111 0.145761,0.0675 0.246311,0.0729 0.393255,0.0222 0.252844,-0.0872 0.405728,-0.29529 0.407729,-0.55604 0.0028,-0.36548 -0.293664,-0.59091 -0.592728,-0.58808 z m 3.441134,0.001 c -0.162253,-0.014 -0.343839,0.0386 -0.459404,0.14314 -0.181957,0.16455 -0.234313,0.52178 -0.106971,0.73019 0.08078,0.13221 0.186351,0.2205 0.319876,0.2682 0.439959,0.15697 0.898424,-0.32166 0.731739,-0.76378 -0.04494,-0.1192 -0.210367,-0.28856 -0.332795,-0.34106 -0.04667,-0.02 -0.09836,-0.032 -0.152445,-0.0367 z m -1.671733,0.002 c -0.105418,-0.013 -0.218755,0.004 -0.330729,0.0584 -0.234315,0.11343 -0.35968,0.38511 -0.306959,0.66611 0.02667,0.14218 0.184261,0.32193 0.345715,0.39533 v 5.3e-4 c 0.06883,0.0312 0.167082,0.0563 0.218591,0.0563 0.23005,0 0.523557,-0.23493 0.564306,-0.45216 0.07082,-0.3775 -0.174673,-0.68562 -0.490924,-0.72451 z m 1.610754,1.65985 c -0.04735,6e-5 -0.09606,0.007 -0.144695,0.0196 -0.157075,0.0423 -0.354666,0.2208 -0.401526,0.36277 -0.09258,0.28054 0.02692,0.5953 0.276471,0.72709 0.347366,0.18346 0.796623,-0.0559 0.840774,-0.44752 0.04067,-0.36081 -0.239556,-0.66239 -0.571024,-0.66197 z m -1.688269,0.009 c -0.290497,0 -0.538689,0.22106 -0.565856,0.50384 -0.02646,0.27527 0.09153,0.49823 0.317809,0.601 0.397343,0.18047 0.829924,-0.0876 0.829924,-0.5147 0,-0.34503 -0.24144,-0.59014 -0.581877,-0.59014 z m -1.681551,5.3e-4 c -0.434539,0 -0.71568,0.45872 -0.518316,0.84542 0.07176,0.1406 0.14257,0.20734 0.285255,0.26924 0.241318,0.10467 0.54261,0.0281 0.696081,-0.17673 0.09552,-0.12749 0.122772,-0.21696 0.119373,-0.38809 -0.0061,-0.30594 -0.264396,-0.54984 -0.582393,-0.54984 z"
       id="path6674"
       inkscape:connector-curvature="0"
       sodipodi:nodetypes="ccccccccccccccccccccscccsccccccccccccccsscccssccccsscccccccsccccscccccccsccccscsccccccsccsssccccs" />
  </g>
</svg>
