<?xml version="1.0" encoding="UTF-8" standalone="no"?>
<!-- Created with Inkscape (http://www.inkscape.org/) -->

<svg
   xmlns:dc="http://purl.org/dc/elements/1.1/"
   xmlns:cc="http://creativecommons.org/ns#"
   xmlns:rdf="http://www.w3.org/1999/02/22-rdf-syntax-ns#"
   xmlns:svg="http://www.w3.org/2000/svg"
   xmlns="http://www.w3.org/2000/svg"
   xmlns:sodipodi="http://sodipodi.sourceforge.net/DTD/sodipodi-0.dtd"
   xmlns:inkscape="http://www.inkscape.org/namespaces/inkscape"
   width="60"
   height="59"
   viewBox="0 0 15.875 15.610417"
   version="1.1"
   id="svg8837"
   inkscape:version="0.92.0 unknown"
   sodipodi:docname="control-center.svg"
   inkscape:export-filename="/usr/share/sundaramenu/Themes/Menu/Windows8/control-center.png"
   inkscape:export-xdpi="96"
   inkscape:export-ydpi="96">
  <defs
     id="defs8831" />
  <sodipodi:namedview
     id="base"
     pagecolor="#ffffff"
     bordercolor="#666666"
     borderopacity="1.0"
     inkscape:pageopacity="0.0"
     inkscape:pageshadow="2"
     inkscape:zoom="2.8"
     inkscape:cx="8.1618883"
     inkscape:cy="-25.038227"
     inkscape:document-units="mm"
     inkscape:current-layer="layer1"
     showgrid="false"
     units="px"
     inkscape:snap-page="true"
     inkscape:window-width="1366"
     inkscape:window-height="699"
     inkscape:window-x="0"
     inkscape:window-y="0"
     inkscape:window-maximized="1" />
  <metadata
     id="metadata8834">
    <rdf:RDF>
      <cc:Work
         rdf:about="">
        <dc:format>image/svg+xml</dc:format>
        <dc:type
           rdf:resource="http://purl.org/dc/dcmitype/StillImage" />
        <dc:title />
      </cc:Work>
    </rdf:RDF>
  </metadata>
  <g
     inkscape:label="Layer 1"
     inkscape:groupmode="layer"
     id="layer1"
     transform="translate(0,-281.38957)">
    <rect
       style="fill:#209efe;fill-opacity:1;stroke:none;stroke-width:0.26458332"
       id="rect8850"
       width="15.875"
       height="15.610416"
       x="0"
       y="281.38956" />
    <path
       inkscape:connector-curvature="0"
       id="path9490"
       d="m 2.7696509,292.03775 c 0.09843,-0.0984 0.12007,-0.1468 0.12007,-0.2684 0,-0.12159 -0.02164,-0.16996 -0.12007,-0.26839 -0.135244,-0.13524 -0.273374,-0.15583 -0.446125,-0.0665 -0.111601,0.0577 -0.210734,0.21525 -0.210734,0.33489 0,0.10367 0.09076,0.26788 0.184231,0.33335 0.04328,0.0303 0.140309,0.0551 0.215623,0.0551 0.108642,0 0.161741,-0.0248 0.257005,-0.12007 z m -0.402591,-0.1342 c -0.05463,-0.0546 -0.05463,-0.21376 0,-0.26839 0.07484,-0.0748 0.233332,-0.0503 0.296362,0.0459 0.05359,0.0818 0.05359,0.0948 0,0.17657 -0.06303,0.0962 -0.221524,0.12075 -0.296362,0.0459 z m 2.107925,0.16385 c 0.27979,-0.23542 0.100389,-0.68596 -0.273312,-0.68638 -0.181075,-2e-4 -0.358447,0.19196 -0.358447,0.38833 0,0.1216 0.02164,0.16997 0.120071,0.2684 0.155219,0.15522 0.349109,0.16645 0.511688,0.0296 z m -0.40546,-0.20976 c -0.05359,-0.0818 -0.05359,-0.0948 0,-0.17657 0.03872,-0.0591 0.09028,-0.0883 0.155916,-0.0883 0.122669,0 0.182824,0.0581 0.182824,0.17657 0,0.11848 -0.06016,0.17658 -0.182824,0.17658 -0.06564,0 -0.117198,-0.0292 -0.155916,-0.0883 z m 2.125678,0.18011 c 0.09843,-0.0984 0.12007,-0.1468 0.12007,-0.2684 0,-0.12159 -0.02164,-0.16996 -0.12007,-0.26839 -0.135244,-0.13524 -0.273374,-0.15583 -0.446125,-0.0665 -0.111601,0.0577 -0.210734,0.21525 -0.210734,0.33489 0,0.11609 0.09746,0.27565 0.203505,0.33319 0.16838,0.0914 0.318682,0.0699 0.453354,-0.0648 z m -0.41608,-0.18011 c -0.06162,-0.13524 0.0099,-0.26486 0.146115,-0.26486 0.07398,0 0.123321,0.0266 0.163736,0.0883 0.05359,0.0818 0.05359,0.0948 0,0.17657 -0.04041,0.0617 -0.08976,0.0883 -0.163736,0.0883 -0.07868,0 -0.116226,-0.0227 -0.146115,-0.0883 z m 6.8857821,-0.37787 c 0.02853,-0.0285 0.04238,-0.18964 0.04238,-0.49317 0,-0.40953 -0.0063,-0.45413 -0.06831,-0.48734 -0.04521,-0.0242 -0.899802,-0.0366 -2.527341,-0.0366 -1.6275401,0 -2.4821321,0.0124 -2.5273421,0.0366 -0.06228,0.0333 -0.06831,0.078 -0.06831,0.50618 0,0.25829 0.0106,0.48022 0.02354,0.49317 0.01295,0.0129 1.161921,0.0235 2.5532721,0.0235 1.92048,0 2.539935,-0.0102 2.572107,-0.0424 z m 1.094082,-0.45171 c 0.0087,-0.41717 0.0023,-0.48196 -0.05089,-0.5209 -0.06282,-0.0459 -0.592495,-0.0634 -0.697746,-0.023 -0.04718,0.0181 -0.05586,0.0967 -0.05586,0.50618 0,0.26661 0.0111,0.49584 0.02467,0.50941 0.01357,0.0136 0.192349,0.0202 0.397294,0.0147 l 0.372626,-0.01 z m -9.0328871,-0.78361 c 0.966227,-0.23145 1.658516,-1.24584 1.521679,-2.22966 -0.117006,-0.84124 -0.707503,-1.51554 -1.506046,-1.71977 -0.720556,-0.18429 -1.438378,0.01 -1.958318,0.52988 -0.941277,0.94127 -0.744128,2.50639 0.4022,3.19297 0.464995,0.2785 0.997051,0.35676 1.540485,0.22658 z m -0.829543,-0.31766 c -0.617668,-0.11779 -1.178251,-0.66628 -1.325034,-1.29645 -0.0598,-0.25673 -0.02716,-0.71005 0.06951,-0.96546 0.229579,-0.60656 0.828374,-1.05158 1.431738,-1.06406 l 0.247205,-0.005 0.01766,0.90053 0.01766,0.90054 0.772804,0.01 0.772805,0.01 -0.02278,0.16704 c -0.06334,0.46456 -0.456803,0.97569 -0.920625,1.19596 -0.367737,0.17464 -0.687298,0.2192 -1.060943,0.14795 z m 6.9743471,-0.93001 v -0.51241 l -1.6686321,0.009 -1.668632,0.009 -0.0099,0.45723 c -0.0055,0.25147 -0.002,0.47793 0.0077,0.50324 0.01416,0.0369 0.34646,0.046 1.678568,0.046 h 1.6609111 z m 2.87817,3.6e-4 v -0.49441 l -1.297825,-0.009 -1.297825,-0.009 v 0.51294 0.51293 l 1.297825,-0.009 1.297825,-0.009 z m -1.826151,-1.94233 c 0.0056,-0.23307 0.0013,-0.45965 -0.0096,-0.5035 l -0.0198,-0.0797 -2.1799591,0.009 -2.179959,0.009 -0.0099,0.45722 c -0.0055,0.25148 -0.0019,0.47806 0.0078,0.50351 0.01443,0.0376 0.426495,0.0446 2.199464,0.0372 l 2.1817041,-0.009 0.01023,-0.42378 z m 1.826151,-0.0706 v -0.49441 h -0.776929 -0.776929 l -0.0098,0.50392 -0.0098,0.50392 0.786732,-0.01 0.786731,-0.01 v -0.49441 z"
       style="fill:#ffffff;stroke-width:0.03531497"
       sodipodi:nodetypes="csccscsccccccccccscccccssscccsccsccccsccscccscscscscccccscscccscccccccccccccccccccccccscccccccccccccccccccccccccccccccc" />
  </g>
</svg>
