<?xml version="1.0" encoding="UTF-8" standalone="no"?>
<!-- Created with Inkscape (http://www.inkscape.org/) -->

<svg
   xmlns:dc="http://purl.org/dc/elements/1.1/"
   xmlns:cc="http://creativecommons.org/ns#"
   xmlns:rdf="http://www.w3.org/1999/02/22-rdf-syntax-ns#"
   xmlns:svg="http://www.w3.org/2000/svg"
   xmlns="http://www.w3.org/2000/svg"
   xmlns:sodipodi="http://sodipodi.sourceforge.net/DTD/sodipodi-0.dtd"
   xmlns:inkscape="http://www.inkscape.org/namespaces/inkscape"
   width="60"
   height="59"
   viewBox="0 0 15.875 15.610417"
   version="1.1"
   id="svg8837"
   inkscape:version="0.92.0 unknown"
   sodipodi:docname="explorerctl.svg"
   inkscape:export-filename="/usr/share/sundaramenu/Themes/Menu/Windows8/explorerctl.png"
   inkscape:export-xdpi="96"
   inkscape:export-ydpi="96">
  <defs
     id="defs8831" />
  <sodipodi:namedview
     id="base"
     pagecolor="#ffffff"
     bordercolor="#666666"
     borderopacity="1.0"
     inkscape:pageopacity="0.0"
     inkscape:pageshadow="2"
     inkscape:zoom="1.979899"
     inkscape:cx="40.374096"
     inkscape:cy="-44.942331"
     inkscape:document-units="mm"
     inkscape:current-layer="layer1"
     showgrid="false"
     units="px"
     inkscape:snap-page="true"
     inkscape:window-width="1366"
     inkscape:window-height="699"
     inkscape:window-x="0"
     inkscape:window-y="0"
     inkscape:window-maximized="1" />
  <metadata
     id="metadata8834">
    <rdf:RDF>
      <cc:Work
         rdf:about="">
        <dc:format>image/svg+xml</dc:format>
        <dc:type
           rdf:resource="http://purl.org/dc/dcmitype/StillImage" />
        <dc:title></dc:title>
      </cc:Work>
    </rdf:RDF>
  </metadata>
  <g
     inkscape:label="Layer 1"
     inkscape:groupmode="layer"
     id="layer1"
     transform="translate(0,-281.38957)">
    <rect
       style="fill:#a86e09;fill-opacity:1;stroke:none;stroke-width:0.26458332"
       id="rect8850"
       width="15.875"
       height="15.610416"
       x="0"
       y="281.38956" />
    <path
       inkscape:connector-curvature="0"
       id="path8860"
       d="m 5.8599381,291.77468 0.017312,-1.41967 H 7.9374992 9.997749 l 0.017312,1.41967 0.01731,1.41964 h 0.623269 0.62327 l 0.009,-2.00441 c 0.0065,-1.4516 -0.0019,-2.01742 -0.03021,-2.05159 -0.05422,-0.0654 -6.57209,-0.0709 -6.6373183,-0.006 -0.031352,0.0313 -0.041551,0.53117 -0.041551,2.03716 0,1.09759 0.010715,2.00634 0.023862,2.01947 0.01312,0.0131 0.2974884,0.0197 0.6319251,0.0144 l 0.6080697,-0.01 z m -1.4196683,-0.81373 0.017312,-2.02562 h 3.4799158 3.4799184 l 0.01731,2.02562 0.01731,2.02562 0.372229,0.01 0.372231,0.01 v -3.34258 c 0,-3.29642 -9.57e-4,-3.34355 -0.06925,-3.41184 -0.06848,-0.0684 -0.11542,-0.0692 -4.189751,-0.0692 -4.0743296,0 -4.1212746,7.8e-4 -4.1897501,0.0692 -0.068298,0.0683 -0.069252,0.11543 -0.069252,3.41184 v 3.34258 l 0.3722305,-0.01 0.3722294,-0.01 z m 5.4189755,0.79641 v -1.22923 H 7.9374997 6.0157553 l -0.00907,1.19437 c -0.00506,0.65692 -0.00154,1.21411 0.00766,1.23819 0.01332,0.0348 0.413176,0.0419 1.9308671,0.0348 l 1.9140621,-0.01 z m -2.0439569,-5.74627 c 0.02511,-0.0407 -0.1463328,-0.72882 -0.196665,-0.78948 -0.028666,-0.0346 -0.3980621,-0.0419 -1.7372244,-0.0348 l -1.7008237,0.01 -0.097341,0.37636 c -0.05354,0.20698 -0.089084,0.39787 -0.078992,0.42416 0.015299,0.0399 0.3320375,0.0479 1.9045127,0.0479 1.1570896,0 1.8940404,-0.0127 1.9065422,-0.033 z"
       style="fill:#ffffff;stroke-width:0.03462604"
       sodipodi:nodetypes="cccccccccccsccccccccccccscscscccccccccccccccccccscc" />
  </g>
</svg>
