<?xml version="1.0" encoding="UTF-8" standalone="no"?>
<!-- Created with Inkscape (http://www.inkscape.org/) -->

<svg
   xmlns:dc="http://purl.org/dc/elements/1.1/"
   xmlns:cc="http://creativecommons.org/ns#"
   xmlns:rdf="http://www.w3.org/1999/02/22-rdf-syntax-ns#"
   xmlns:svg="http://www.w3.org/2000/svg"
   xmlns="http://www.w3.org/2000/svg"
   xmlns:sodipodi="http://sodipodi.sourceforge.net/DTD/sodipodi-0.dtd"
   xmlns:inkscape="http://www.inkscape.org/namespaces/inkscape"
   width="30"
   height="30"
   viewBox="0 0 7.9375 7.9375002"
   version="1.1"
   id="svg5474"
   inkscape:version="0.92.0 unknown"
   sodipodi:docname="shutdown.svg"
   inkscape:export-filename="/usr/share/sundaramenu/Themes/Menu/Windows8/shutdown.png"
   inkscape:export-xdpi="96"
   inkscape:export-ydpi="96">
  <defs
     id="defs5468">
    <filter
       inkscape:collect="always"
       style="color-interpolation-filters:sRGB"
       id="filter5826"
       x="-0.15035742"
       width="1.3007148"
       y="-0.13815838"
       height="1.2763168">
      <feGaussianBlur
         inkscape:collect="always"
         stdDeviation="0.27000523"
         id="feGaussianBlur5828" />
    </filter>
    <filter
       inkscape:collect="always"
       style="color-interpolation-filters:sRGB"
       id="filter5859"
       x="-0.28797129"
       width="1.5759426"
       y="-0.09600319"
       height="1.1920064">
      <feGaussianBlur
         inkscape:collect="always"
         stdDeviation="0.055847856"
         id="feGaussianBlur5861" />
    </filter>
  </defs>
  <sodipodi:namedview
     id="base"
     pagecolor="#ffffff"
     bordercolor="#666666"
     borderopacity="1.0"
     inkscape:pageopacity="0"
     inkscape:pageshadow="2"
     inkscape:zoom="7.919596"
     inkscape:cx="1.7826418"
     inkscape:cy="13.460585"
     inkscape:document-units="mm"
     inkscape:current-layer="layer1"
     showgrid="false"
     units="px"
     inkscape:window-width="1366"
     inkscape:window-height="699"
     inkscape:window-x="0"
     inkscape:window-y="0"
     inkscape:window-maximized="1" />
  <metadata
     id="metadata5471">
    <rdf:RDF>
      <cc:Work
         rdf:about="">
        <dc:format>image/svg+xml</dc:format>
        <dc:type
           rdf:resource="http://purl.org/dc/dcmitype/StillImage" />
        <dc:title></dc:title>
      </cc:Work>
    </rdf:RDF>
  </metadata>
  <g
     inkscape:label="Layer 1"
     inkscape:groupmode="layer"
     id="layer1"
     transform="translate(0,-289.06248)">
    <path
       d="m 3.7359809,290.82566 0.4654452,-0.13961 v 1.39615 H 3.7359809 Z"
       style="color:#000000;fill:#ffffff;fill-opacity:1;stroke-width:0.078;stroke:#ffffff;stroke-opacity:0.73949581;stroke-miterlimit:4;stroke-dasharray:none;filter:url(#filter5859)"
       id="path5849"
       inkscape:connector-curvature="0" />
    <g
       id="g5800"
       style="fill:#ffffff;stroke:#ffffff;stroke-opacity:0.73949581;filter:url(#filter5826)">
      <path
         inkscape:connector-curvature="0"
         id="path5794"
         style="color:#000000;fill:#ffffff;fill-opacity:1;stroke-width:0.07756386;stroke:#ffffff;stroke-opacity:0.73949581"
         d="m 3.7359809,290.82566 0.4654452,-0.13961 v 1.39615 H 3.7359809 Z" />
      <path
         style="fill:#ffffff;fill-opacity:1;stroke:#ffffff;stroke-width:0.3413125;stroke-opacity:0.73949581"
         d="m 3.3424315,291.16013 a 2.1548605,2.1548605 0 0 0 -1.5285887,2.06137 2.1548605,2.1548605 0 0 0 2.1549072,2.15491 2.1548605,2.1548605 0 0 0 2.1549071,-2.15491 2.1548605,2.1548605 0 0 0 -1.5285887,-2.05982 v 0.33486 a 1.8374779,1.8374779 0 0 1 1.2112953,1.72496 1.8374779,1.8374779 0 0 1 -1.8376137,1.8371 1.8374779,1.8374779 0 0 1 -1.837614,-1.8371 1.8374779,1.8374779 0 0 1 1.2112955,-1.72599 z"
         id="path5796"
         inkscape:connector-curvature="0" />
    </g>
    <path
       inkscape:connector-curvature="0"
       id="rect4280"
       style="color:#000000;fill:#ffffff;fill-opacity:1;stroke-width:0.07756386;stroke:none"
       d="m 3.7359809,290.82566 0.4654452,-0.13961 v 1.39615 H 3.7359809 Z" />
    <path
       style="fill:#ffffff;fill-opacity:1;stroke:none;stroke-width:0.3413125;stroke-opacity:1"
       d="m 3.3424315,291.16013 a 2.1548605,2.1548605 0 0 0 -1.5285887,2.06137 2.1548605,2.1548605 0 0 0 2.1549072,2.15491 2.1548605,2.1548605 0 0 0 2.1549071,-2.15491 2.1548605,2.1548605 0 0 0 -1.5285887,-2.05982 v 0.33486 a 1.8374779,1.8374779 0 0 1 1.2112953,1.72496 1.8374779,1.8374779 0 0 1 -1.8376137,1.8371 1.8374779,1.8374779 0 0 1 -1.837614,-1.8371 1.8374779,1.8374779 0 0 1 1.2112955,-1.72599 z"
       id="path5777"
       inkscape:connector-curvature="0" />
  </g>
</svg>
