<?xml version="1.0" encoding="UTF-8" standalone="no"?>
<!-- Created with Inkscape (http://www.inkscape.org/) -->

<svg
   xmlns:dc="http://purl.org/dc/elements/1.1/"
   xmlns:cc="http://creativecommons.org/ns#"
   xmlns:rdf="http://www.w3.org/1999/02/22-rdf-syntax-ns#"
   xmlns:svg="http://www.w3.org/2000/svg"
   xmlns="http://www.w3.org/2000/svg"
   xmlns:sodipodi="http://sodipodi.sourceforge.net/DTD/sodipodi-0.dtd"
   xmlns:inkscape="http://www.inkscape.org/namespaces/inkscape"
   width="123"
   height="59"
   viewBox="0 0 32.543749 15.610417"
   version="1.1"
   id="svg8198"
   inkscape:version="0.92.0 unknown"
   sodipodi:docname="telegramctl.svg"
   inkscape:export-filename="/usr/share/sundaramenu/Themes/Menu/Windows8/telegramctl.png"
   inkscape:export-xdpi="96"
   inkscape:export-ydpi="96">
  <defs
     id="defs8192" />
  <sodipodi:namedview
     id="base"
     pagecolor="#ffffff"
     bordercolor="#666666"
     borderopacity="1.0"
     inkscape:pageopacity="0.0"
     inkscape:pageshadow="2"
     inkscape:zoom="1.979899"
     inkscape:cx="11.562158"
     inkscape:cy="22.944163"
     inkscape:document-units="mm"
     inkscape:current-layer="layer1"
     showgrid="false"
     units="px"
     inkscape:snap-page="true"
     inkscape:snap-global="false"
     inkscape:window-width="1366"
     inkscape:window-height="699"
     inkscape:window-x="0"
     inkscape:window-y="0"
     inkscape:window-maximized="1" />
  <metadata
     id="metadata8195">
    <rdf:RDF>
      <cc:Work
         rdf:about="">
        <dc:format>image/svg+xml</dc:format>
        <dc:type
           rdf:resource="http://purl.org/dc/dcmitype/StillImage" />
        <dc:title></dc:title>
      </cc:Work>
    </rdf:RDF>
  </metadata>
  <g
     inkscape:label="Layer 1"
     inkscape:groupmode="layer"
     id="layer1"
     transform="translate(0,-281.38957)">
    <path
       style="fill:#000000;stroke-width:0.07815444"
       d=""
       id="path8213"
       inkscape:connector-curvature="0" />
    <path
       style="fill:#000000;stroke-width:0.07815444"
       d=""
       id="path8211"
       inkscape:connector-curvature="0" />
    <rect
       style="fill:#2685ce;fill-opacity:1;stroke:none;stroke-width:0.26458332"
       id="rect8241"
       width="32.543751"
       height="15.610416"
       x="0"
       y="281.38956" />
    <text
       xml:space="preserve"
       style="font-style:normal;font-variant:normal;font-weight:normal;font-stretch:normal;font-size:10.58333302px;line-height:6.49335146px;font-family:'Khmer UI';-inkscape-font-specification:'Khmer UI';letter-spacing:0px;word-spacing:0px;fill:#000000;fill-opacity:1;stroke:none;stroke-width:0.26458332"
       x="2.5513394"
       y="295.01562"
       id="text8245"><tspan
         sodipodi:role="line"
         id="tspan8243"
         x="2.5513394"
         y="295.01562"
         style="font-size:3.17499995px;fill:#ffffff;stroke-width:0.26458332">Telegram</tspan></text>
    <path
       inkscape:connector-curvature="0"
       id="path4792"
       d="m 19.375065,292.22009 c 0.234119,-0.12107 0.246033,-0.14901 0.418529,-0.98177 0.05347,-0.25812 0.124785,-0.59251 0.15848,-0.74309 0.0337,-0.15058 0.07568,-0.36177 0.09332,-0.46934 0.02919,-0.17811 0.229321,-1.10536 0.320767,-1.48618 0.02067,-0.0861 0.05386,-0.25326 0.07379,-0.37156 0.05816,-0.34535 0.198844,-1.00739 0.290885,-1.36887 0.03013,-0.1183 0.07556,-0.34711 0.100968,-0.50844 0.0254,-0.16133 0.06936,-0.39012 0.09766,-0.50843 0.108356,-0.45291 0.134912,-0.57724 0.19277,-0.9026 0.08935,-0.50244 0.08363,-0.54433 -0.09863,-0.72234 -0.148053,-0.1446 -0.172709,-0.15442 -0.381327,-0.15179 -0.199135,0.003 -0.725269,0.15609 -0.848381,0.24765 -0.02175,0.0162 -0.127538,0.0602 -0.235091,0.0978 -0.107554,0.0377 -0.230753,0.0837 -0.273774,0.10238 -0.04302,0.0187 -0.160854,0.0701 -0.26185,0.11429 -0.100997,0.0442 -0.194605,0.0804 -0.20802,0.0804 -0.01341,0 -0.432374,0.16089 -0.931021,0.35755 -0.498647,0.19666 -1.06503,0.41776 -1.258628,0.49136 -0.193597,0.0737 -0.475192,0.18411 -0.625768,0.24561 -0.150576,0.0615 -0.511371,0.20322 -0.801766,0.31496 -0.290397,0.11173 -0.651191,0.25215 -0.801768,0.31202 -0.150574,0.0598 -0.335372,0.13086 -0.41066,0.15774 -0.07529,0.0269 -0.189686,0.0724 -0.254218,0.10123 -0.06453,0.0288 -0.302129,0.12114 -0.527992,0.20526 -0.225864,0.0841 -0.604259,0.22681 -0.840878,0.31711 -0.236619,0.0903 -0.506197,0.19173 -0.599061,0.22541 -0.09286,0.0337 -0.220463,0.10945 -0.283551,0.16838 -0.09397,0.0878 -0.114707,0.13895 -0.114707,0.28297 0,0.15228 0.01849,0.19204 0.138248,0.29719 0.07604,0.0668 0.167395,0.12138 0.203019,0.12138 0.03562,0 0.215409,0.0459 0.399522,0.10202 1.798726,0.5482 1.723804,0.52053 1.782299,0.65798 0.02808,0.066 0.09611,0.26959 0.151169,0.45243 0.05505,0.18285 0.171583,0.56123 0.258949,0.84087 0.08736,0.27965 0.186916,0.60524 0.221221,0.72355 0.03431,0.11831 0.07778,0.24567 0.09662,0.28302 0.01883,0.0374 0.03425,0.0962 0.03425,0.13084 0,0.11282 0.151979,0.27985 0.313408,0.34444 0.237029,0.0949 0.335811,0.0337 0.996317,-0.61634 0.319749,-0.3147 0.596581,-0.57218 0.615183,-0.57218 0.0325,0 0.206634,0.12069 1.002218,0.69463 0.200962,0.14497 0.441837,0.31868 0.535279,0.38603 0.09344,0.0673 0.245815,0.18457 0.338606,0.26051 0.368262,0.30137 0.696983,0.40313 0.923623,0.28592 z m -4.465008,-1.78353 c -0.01067,-0.0323 -0.09215,-0.28746 -0.181054,-0.5671 -0.0889,-0.27963 -0.187319,-0.58815 -0.218703,-0.68557 -0.03139,-0.0974 -0.06761,-0.26622 -0.08051,-0.37512 l -0.02345,-0.19798 0.59392,-0.36798 c 0.326656,-0.2024 0.695964,-0.4296 0.820684,-0.50487 0.234908,-0.14181 0.283414,-0.17216 1.000119,-0.62563 0.236618,-0.14971 0.562213,-0.34902 0.723545,-0.4429 0.161331,-0.0939 0.530925,-0.32312 0.821321,-0.50944 0.621268,-0.3986 0.821322,-0.51034 0.821322,-0.45875 0,0.0208 -0.09075,0.1135 -0.201675,0.20613 -0.110922,0.0926 -0.326519,0.28451 -0.479105,0.42645 -0.377295,0.35097 -1.027948,0.93115 -1.20322,1.0729 -0.07897,0.0639 -0.386966,0.33454 -0.684435,0.60148 -1.644161,1.47541 -1.538174,1.35669 -1.538174,1.72304 0,0.20638 -0.06889,0.61684 -0.118375,0.70534 -0.02917,0.0521 -0.03496,0.0521 -0.05222,0 z"
       style="fill:#ffffff;stroke-width:0.03911056"
       sodipodi:nodetypes="cccccsccsccccccsssscssccscccscsccssccsscsscccccccccccsccsccccscc" />
  </g>
</svg>
