<?xml version="1.0" encoding="UTF-8" standalone="no"?>
<!-- Created with Inkscape (http://www.inkscape.org/) -->

<svg
   xmlns:dc="http://purl.org/dc/elements/1.1/"
   xmlns:cc="http://creativecommons.org/ns#"
   xmlns:rdf="http://www.w3.org/1999/02/22-rdf-syntax-ns#"
   xmlns:svg="http://www.w3.org/2000/svg"
   xmlns="http://www.w3.org/2000/svg"
   xmlns:sodipodi="http://sodipodi.sourceforge.net/DTD/sodipodi-0.dtd"
   xmlns:inkscape="http://www.inkscape.org/namespaces/inkscape"
   width="60"
   height="59"
   viewBox="0 0 15.875 15.610417"
   version="1.1"
   id="svg8837"
   inkscape:version="0.92.0 unknown"
   sodipodi:docname="update-managerctl.svg"
   inkscape:export-filename="/usr/share/sundaramenu/Themes/Menu/Windows8/update-managerctl.png"
   inkscape:export-xdpi="96"
   inkscape:export-ydpi="96">
  <defs
     id="defs8831" />
  <sodipodi:namedview
     id="base"
     pagecolor="#ffffff"
     bordercolor="#666666"
     borderopacity="1.0"
     inkscape:pageopacity="0.0"
     inkscape:pageshadow="2"
     inkscape:zoom="1.979899"
     inkscape:cx="-11.022525"
     inkscape:cy="41.919708"
     inkscape:document-units="mm"
     inkscape:current-layer="layer1"
     showgrid="false"
     units="px"
     inkscape:snap-page="false"
     inkscape:window-width="1366"
     inkscape:window-height="699"
     inkscape:window-x="0"
     inkscape:window-y="0"
     inkscape:window-maximized="1" />
  <metadata
     id="metadata8834">
    <rdf:RDF>
      <cc:Work
         rdf:about="">
        <dc:format>image/svg+xml</dc:format>
        <dc:type
           rdf:resource="http://purl.org/dc/dcmitype/StillImage" />
        <dc:title></dc:title>
      </cc:Work>
    </rdf:RDF>
  </metadata>
  <g
     inkscape:label="Layer 1"
     inkscape:groupmode="layer"
     id="layer1"
     transform="translate(0,-281.38957)">
    <rect
       style="fill:#037e9e;fill-opacity:1;stroke:none;stroke-width:0.26458332"
       id="rect8850"
       width="15.875"
       height="15.610416"
       x="0"
       y="281.38956" />
    <path
       inkscape:connector-curvature="0"
       id="path10169"
       d="M 4.819196,310.32364 V 299.7403 h 10.583336 10.583336 v 10.58334 10.58333 H 15.402532 4.819196 Z"
       style="fill:#fcfcfc;stroke-width:0.04134116" />
    <path
       style="fill:#ffffff;stroke-width:0.04106819"
       d="m 4.3479961,283.02076 3.2638476,0.4918 c 3.6081943,0.54365 3.5213443,0.52382 3.8824763,0.88496 0.228479,0.22848 0.365934,0.49038 0.427627,0.81477 0.03355,0.17637 0.04322,1.59625 0.03459,5.06709 l -0.0119,4.82208 -0.184861,0.13423 c -0.113005,0.0821 -0.2326,0.13383 -0.307936,0.1331 -0.06776,-4.8e-4 -0.834746,-0.11031 -1.704365,-0.24377 -0.8696186,-0.13346 -2.5328551,-0.3861 -3.6961113,-0.56148 l -2.1150716,-0.31883 -0.010403,-5.48357 -0.010402,-5.48345 0.2156933,-0.12846 0.2148161,-0.12796 c 6.936e-4,-1.8e-4 0.00132,-2.4e-4 0.002,-4.9e-4 z m 2.6963527,1.85301 c -0.1789033,0.006 -0.3526807,0.0459 -0.412211,0.1054 -0.082288,0.0823 -0.3562517,1.03965 -0.3225995,1.12734 0.018386,0.0479 0.078679,0.0561 0.2892617,0.0392 0.349507,-0.028 0.5138849,0.006 0.7311761,0.15366 0.098599,0.0668 0.1908643,0.12184 0.2050399,0.12233 0.062678,0.001 0.1201835,-0.13477 0.256927,-0.60999 0.1099967,-0.38226 0.1358754,-0.52721 0.104525,-0.58579 -0.059285,-0.11078 -0.3287027,-0.27122 -0.5481935,-0.32648 -0.087392,-0.022 -0.1965838,-0.0298 -0.3039257,-0.0257 z m 1.0102862,0.53691 c -0.00637,-4.8e-4 -0.011511,-1.5e-4 -0.015165,10e-4 -0.051565,0.0198 -0.1432125,0.28831 -0.2912671,0.85376 -0.070165,0.26796 -0.069882,0.27659 0.0089,0.3637 0.1019717,0.11275 0.3660169,0.25051 0.5529568,0.28839 0.1867343,0.0378 0.5310583,0.003 0.6401862,-0.0654 0.062989,-0.0392 0.1265592,-0.19692 0.239631,-0.59406 0.084657,-0.29734 0.141592,-0.55302 0.1264585,-0.56812 -0.015131,-0.0151 -0.1984781,-0.0275 -0.4073232,-0.0275 -0.3580998,0 -0.3921344,-0.008 -0.5980754,-0.13561 -0.1050928,-0.0652 -0.2116885,-0.113 -0.2563,-0.11643 z m -1.3174704,0.79447 c -0.2110744,-1.3e-4 -0.4478864,0.0431 -0.5028247,0.10352 -0.063824,0.0701 -0.3182156,0.98607 -0.3000404,1.08022 0.012663,0.0656 0.061575,0.075 0.4063203,0.0777 0.370247,0.003 0.4034089,0.0105 0.5955689,0.13611 0.230463,0.15063 0.2394986,0.15312 0.2965308,0.0826 0.05654,-0.0699 0.2970327,-0.93261 0.2970327,-1.06543 0,-0.1377 -0.3115105,-0.34569 -0.597825,-0.39917 -0.056965,-0.0107 -0.1244045,-0.0155 -0.1947626,-0.0155 z m 0.9552663,0.52351 c -0.023492,-10e-4 -0.039649,0.008 -0.056274,0.0266 -0.06158,0.0675 -0.3116959,0.93075 -0.3116959,1.07584 0,0.11836 0.2284437,0.29252 0.4999422,0.381 0.2089742,0.0681 0.6211005,0.0457 0.7532343,-0.0408 0.1070846,-0.0702 0.414811,-1.08277 0.349044,-1.14853 -0.021728,-0.0217 -0.2113516,-0.041 -0.4213596,-0.0428 -0.3616103,-0.003 -0.393349,-0.0105 -0.599329,-0.14262 -0.1150442,-0.0738 -0.1744095,-0.10644 -0.2135623,-0.10866 z m -0.06091,3.65073 c -0.065399,-0.0112 -0.1431752,0.0544 -0.5292694,0.40984 -0.2181863,0.20087 -0.3939125,0.39573 -0.3939125,0.43677 0,0.0753 0.1067464,0.12311 0.2772301,0.12408 l 0.092494,4.9e-4 6.427e-4,1.24239 c 3.202e-4,0.68328 0.01749,1.26903 0.038226,1.30181 0.022792,0.036 0.1971799,0.0871 0.4409112,0.12909 0.2217348,0.0382 0.4225839,0.0715 0.4463008,0.0739 0.1298569,0.0134 0.1416229,-0.0964 0.1416229,-1.31571 v -1.2216 l 0.1951393,-0.0125 c 0.1346677,-0.009 0.1950137,-0.0305 0.1950137,-0.0704 0,-0.0671 -0.7941586,-1.05437 -0.8761833,-1.08924 -0.0097,-0.004 -0.018857,-0.007 -0.028199,-0.009 z"
       id="path10883"
       inkscape:connector-curvature="0"
       sodipodi:nodetypes="ccccccccscccccccsccccccccsccccccccsccscccscscsscscccccsccsccccccsccscc" />
  </g>
</svg>
