<?xml version="1.0" encoding="UTF-8" standalone="no"?>
<!-- Created with Inkscape (http://www.inkscape.org/) -->

<svg
   xmlns:dc="http://purl.org/dc/elements/1.1/"
   xmlns:cc="http://creativecommons.org/ns#"
   xmlns:rdf="http://www.w3.org/1999/02/22-rdf-syntax-ns#"
   xmlns:svg="http://www.w3.org/2000/svg"
   xmlns="http://www.w3.org/2000/svg"
   xmlns:sodipodi="http://sodipodi.sourceforge.net/DTD/sodipodi-0.dtd"
   xmlns:inkscape="http://www.inkscape.org/namespaces/inkscape"
   width="198"
   height="198"
   viewBox="0 0 52.387499 52.387501"
   version="1.1"
   id="svg4673"
   sodipodi:docname="whatsapp.svg"
   inkscape:export-filename="/usr/share/sundaramenu/Themes/Menu/Windows8/whatsapp.png"
   inkscape:export-xdpi="46.545456"
   inkscape:export-ydpi="46.545456"
   inkscape:version="0.92.0 unknown">
  <defs
     id="defs4667" />
  <sodipodi:namedview
     id="base"
     pagecolor="#ffffff"
     bordercolor="#666666"
     borderopacity="1.0"
     inkscape:pageopacity="0.0"
     inkscape:pageshadow="2"
     inkscape:zoom="0.35"
     inkscape:cx="307.45732"
     inkscape:cy="147.09668"
     inkscape:document-units="mm"
     inkscape:current-layer="layer1"
     showgrid="false"
     units="px"
     inkscape:snap-page="true"
     inkscape:snap-global="false"
     inkscape:window-width="1366"
     inkscape:window-height="699"
     inkscape:window-x="0"
     inkscape:window-y="0"
     inkscape:window-maximized="1" />
  <metadata
     id="metadata4670">
    <rdf:RDF>
      <cc:Work
         rdf:about="">
        <dc:format>image/svg+xml</dc:format>
        <dc:type
           rdf:resource="http://purl.org/dc/dcmitype/StillImage" />
        <dc:title></dc:title>
      </cc:Work>
    </rdf:RDF>
  </metadata>
  <g
     inkscape:label="Layer 1"
     inkscape:groupmode="layer"
     id="layer1"
     transform="translate(0,-244.61248)">
    <rect
       style="fill:#33ba47;fill-opacity:1;stroke-width:0.26458332"
       id="rect4704"
       width="52.387501"
       height="52.387501"
       x="0"
       y="244.61247" />
    <text
       id="text4142"
       y="290.20471"
       x="6.4057636"
       style="font-style:normal;font-weight:normal;font-size:5.19468117px;line-height:6.49335146px;font-family:sans-serif;letter-spacing:0px;word-spacing:0px;fill:#ffffff;fill-opacity:1;stroke:none;stroke-width:0.28222224px;stroke-linecap:butt;stroke-linejoin:miter;stroke-opacity:1"
       xml:space="preserve"><tspan
         style="font-style:normal;font-variant:normal;font-weight:normal;font-stretch:normal;font-size:9.17222214px;line-height:6.49335146px;font-family:'Khmer UI';-inkscape-font-specification:'Khmer UI';fill:#ffffff;stroke-width:0.28222224px"
         y="290.20471"
         x="6.4057636"
         id="tspan4144"
         sodipodi:role="line">WhatsApp</tspan></text>
    <path
       style="fill:#ffffff;stroke-width:0.1079434"
       d="m 28.006145,252.52766 c -5.685193,-0.002 -10.824114,3.76267 -12.597332,9.22873 -0.445432,1.37308 -0.642343,2.66156 -0.643445,4.2098 -0.0014,2.09601 0.383309,3.7615 1.334536,5.77497 l 0.5355,1.1334 -1.184426,3.54464 c -0.768773,2.30074 -1.130497,3.52408 -1.030733,3.48582 0.08454,-0.0324 1.737889,-0.57006 3.674081,-1.19455 l 3.520388,-1.13531 0.43852,0.22369 c 0.890749,0.45443 2.34,0.95256 3.399165,1.16841 1.460264,0.29758 3.699731,0.30456 5.180439,0.0163 5.084981,-0.99021 9.083702,-4.76236 10.423496,-9.83298 0.302734,-1.14579 0.328626,-1.38675 0.337112,-3.13035 0.0072,-1.46794 -0.03556,-2.09353 -0.191642,-2.80653 -1.385882,-6.33054 -6.761305,-10.68353 -13.195659,-10.68598 z m -0.238234,2.15929 c 1.143736,-0.006 2.468442,0.13081 3.27351,0.36852 3.896512,1.15051 6.715119,3.96687 7.894836,7.88831 0.267465,0.88914 0.293093,1.13161 0.30064,2.86049 0.0073,1.67281 -0.02119,1.99402 -0.247721,2.80653 -0.581635,2.08609 -1.723824,3.99033 -3.25812,5.43153 -1.522596,1.43021 -3.396853,2.407 -5.391267,2.80969 -2.551204,0.51512 -4.79487,0.21342 -7.228624,-0.97191 l -1.237555,-0.60275 -2.051136,0.65503 c -1.128165,0.36028 -2.07552,0.63087 -2.105106,0.60129 -0.02958,-0.0296 0.246803,-0.95845 0.614139,-2.064 l 0.6679,-2.01002 -0.484692,-0.79819 c -0.605867,-0.99796 -0.957118,-1.85028 -1.295531,-3.14344 -0.221236,-0.84538 -0.264377,-1.26278 -0.264377,-2.55668 0,-1.75697 0.143189,-2.60191 0.685608,-4.046 1.395638,-3.71559 4.741835,-6.44338 8.745735,-7.1291 0.379321,-0.065 0.861881,-0.0968 1.381761,-0.0993 z m -3.902829,4.74866 c -0.71769,0 -0.779287,0.0201 -1.18801,0.3894 -0.988062,0.89265 -1.431437,2.60614 -1.030944,3.98378 0.564814,1.9429 2.603052,4.76885 4.562928,6.3263 0.871214,0.69231 2.48963,1.53724 3.914845,2.04396 0.794606,0.28259 1.033204,0.32089 1.781067,0.2863 0.705303,-0.0326 0.984989,-0.10197 1.526809,-0.37801 1.038909,-0.52931 1.550577,-1.32816 1.548945,-2.41798 -5.71e-4,-0.3457 -0.04237,-0.37941 -1.322307,-1.06847 -0.726954,-0.39136 -1.483416,-0.76671 -1.681133,-0.83403 -0.349279,-0.11893 -0.372263,-0.10794 -0.809576,0.38602 -0.878872,0.99272 -1.130711,1.21353 -1.383868,1.21353 -0.550917,-10e-6 -2.055486,-0.99054 -3.114125,-2.05009 -0.96537,-0.9662 -1.835038,-2.1955 -1.835038,-2.5938 0,-0.093 0.244865,-0.45824 0.544145,-0.81189 0.299278,-0.35365 0.569477,-0.74411 0.600646,-0.86756 0.0616,-0.24416 -0.795156,-2.68281 -1.144158,-3.25665 -0.208096,-0.34215 -0.23204,-0.35081 -0.970226,-0.35081 z"
       id="path8144"
       inkscape:connector-curvature="0" />
  </g>
</svg>
