<?xml version="1.0" encoding="UTF-8" standalone="no"?>
<!-- Created with Inkscape (http://www.inkscape.org/) -->

<svg
   xmlns:dc="http://purl.org/dc/elements/1.1/"
   xmlns:cc="http://creativecommons.org/ns#"
   xmlns:rdf="http://www.w3.org/1999/02/22-rdf-syntax-ns#"
   xmlns:svg="http://www.w3.org/2000/svg"
   xmlns="http://www.w3.org/2000/svg"
   xmlns:sodipodi="http://sodipodi.sourceforge.net/DTD/sodipodi-0.dtd"
   xmlns:inkscape="http://www.inkscape.org/namespaces/inkscape"
   id="svg2"
   version="1.1"
   inkscape:version="0.48.3.1 r9886"
   width="66"
   height="66"
   sodipodi:docname="cof.png"
   inkscape:export-filename="/usr/share/unity-greeter/cof.png"
   inkscape:export-xdpi="90"
   inkscape:export-ydpi="90">
  <metadata
     id="metadata8">
    <rdf:RDF>
      <cc:Work
         rdf:about="">
        <dc:format>image/svg+xml</dc:format>
        <dc:type
           rdf:resource="http://purl.org/dc/dcmitype/StillImage" />
        <dc:title></dc:title>
      </cc:Work>
    </rdf:RDF>
  </metadata>
  <defs
     id="defs6">
    <filter
       inkscape:collect="always"
       id="filter3764">
      <feGaussianBlur
         inkscape:collect="always"
         stdDeviation="0.31888898"
         id="feGaussianBlur3766" />
    </filter>
  </defs>
  <sodipodi:namedview
     pagecolor="#ffffff"
     bordercolor="#666666"
     borderopacity="1"
     objecttolerance="10"
     gridtolerance="10"
     guidetolerance="10"
     inkscape:pageopacity="0"
     inkscape:pageshadow="2"
     inkscape:window-width="1366"
     inkscape:window-height="701"
     id="namedview4"
     showgrid="false"
     inkscape:zoom="3.5757576"
     inkscape:cx="-25.887754"
     inkscape:cy="-14.354924"
     inkscape:window-x="0"
     inkscape:window-y="0"
     inkscape:window-maximized="1"
     inkscape:current-layer="svg2" />
  <path
     inkscape:connector-curvature="0"
     style="fill:#333333;fill-opacity:1;stroke:none;filter:url(#filter3764)"
     d="m 32.998896,2.1115489 c -17.614754,0 -31.8882556,14.2735011 -31.8882556,31.8882521 0,0.562094 0.00577,1.127887 0.03436,1.682845 0.027753,0.533607 0.065763,1.053467 0.1201946,1.579815 0.055125,0.533079 0.1247541,1.071997 0.2060722,1.596987 0.066028,0.426478 0.1406787,0.849986 0.2232506,1.270722 0.066391,0.34057 0.1461136,0.676539 0.2232524,1.013145 0.031668,0.137789 0.052482,0.274909 0.085868,0.412125 1.4848805,6.108128 4.7341689,11.529761 9.1698008,15.695136 0.0041,0.01073 0.01321,0.0228 0.01694,0.03442 0.08005,0.07501 0.159609,0.149038 0.2404,0.223254 0.03884,0.03573 0.08123,0.06755 0.120195,0.103011 0.241133,0.219218 0.490597,0.423529 0.738392,0.635359 0.309041,0.264097 0.625377,0.520412 0.944459,0.77273 0.137227,0.108565 0.273066,0.21992 0.412124,0.326271 0.276865,0.211711 0.557509,0.415453 0.841423,0.618195 0.05286,0.03769 0.101446,0.08272 0.154538,0.120178 0.341513,0.240695 0.696279,0.459435 1.047484,0.68688 0.183837,0.119187 0.363124,0.245164 0.549501,0.360612 0.102284,0.06326 0.206072,0.12672 0.309098,0.18892 0.407192,0.245838 0.817576,0.476176 1.236381,0.70404 0.01372,0.0076 0.02074,0.02658 0.03439,0.03442 0.422254,0.228949 0.854423,0.442378 1.287889,0.65253 0.03927,0.019 0.08075,0.03258 0.120177,0.05154 0.376659,0.180739 0.765825,0.348977 1.150513,0.515155 0.162386,0.07012 0.317075,0.155794 0.480813,0.223223 0.142197,0.05861 0.286069,0.115172 0.429302,0.171739 0.351147,0.138697 0.70754,0.268481 1.064654,0.394953 0.27447,0.09727 0.546394,0.20204 0.82426,0.291912 0.135475,0.04379 0.275873,0.07819 0.412119,0.120178 0.419066,0.129313 0.844479,0.248262 1.270723,0.360602 0.08064,0.02132 0.159445,0.04809 0.240403,0.06865 0.347024,0.08845 0.696024,0.163361 1.047482,0.240402 0.143686,0.03147 0.284902,0.07343 0.429305,0.103011 0.470697,0.09631 0.947261,0.182289 1.42527,0.257552 0.04591,0.0076 0.09127,0.0096 0.137375,0.01752 0.06892,0.0096 0.137028,0.02425 0.206072,0.03428 0.460427,0.06735 0.924338,0.124325 1.390931,0.171713 0.342501,0.03489 0.684676,0.04477 1.030315,0.06865 0.195903,0.01338 0.387012,0.0415 0.583839,0.05154 0.543507,0.02747 1.098136,0.03442 1.648496,0.03442 0.614091,0 1.214732,-0.01752 1.820234,-0.05154 0.474029,-0.02657 0.956999,-0.05566 1.425269,-0.103011 0.005,-5.51e-4 0.01073,5.51e-4 0.01752,0 0.06313,-0.0062 0.125894,-0.0096 0.188919,-0.01752 0.377323,-0.04064 0.742922,-0.100832 1.116177,-0.154588 0.259597,-0.03733 0.515166,-0.07674 0.772738,-0.120178 0.114909,-0.01958 0.228891,-0.03086 0.343435,-0.05154 0.09191,-0.01665 0.183078,-0.03428 0.274761,-0.05154 0.276926,-0.05235 0.549905,-0.112232 0.824258,-0.17174 0.647553,-0.140563 1.291026,-0.301579 1.923255,-0.480822 0.0804,-0.02308 0.160369,-0.04538 0.240401,-0.06869 0.684968,-0.199966 1.361213,-0.408673 2.026287,-0.652533 0.02425,-0.0084 0.04467,-0.02571 0.06865,-0.03441 0.151317,-0.05592 0.296233,-0.113687 0.446473,-0.171742 0.189594,-0.07332 0.378838,-0.146526 0.566673,-0.223222 0.120525,-0.04933 0.240724,-0.103759 0.360614,-0.154538 0.472531,-0.200228 0.947527,-0.413359 1.408089,-0.635357 0.466176,-0.224743 0.920506,-0.457708 1.373758,-0.704053 0.424692,-0.230789 0.84078,-0.471999 1.253552,-0.721216 0.02834,-0.01752 0.05739,-0.03416 0.0859,-0.05154 0.121633,-0.07392 0.240111,-0.147815 0.360605,-0.223221 0.005,-0.0062 0.01073,-0.01073 0.01752,-0.01752 4.578993,-2.871588 8.382296,-6.866398 11.007208,-11.608219 0.03466,-0.06252 0.06877,-0.126043 0.103011,-0.18892 0.0062,-0.01073 0.01073,-0.02338 0.01752,-0.03442 0.117221,-0.215859 0.231053,-0.433697 0.343434,-0.652545 0.16695,-0.32488 0.324781,-0.64758 0.480815,-0.978794 0.123614,-0.262549 0.244025,-0.523508 0.360615,-0.789906 0.0525,-0.119682 0.103525,-0.240109 0.154538,-0.360617 0.07685,-0.181792 0.149649,-0.366 0.223251,-0.549501 0.0076,-0.01665 0.0096,-0.03493 0.01752,-0.05154 0.116263,-0.291386 0.235553,-0.580232 0.343443,-0.875768 0.113455,-0.310186 0.222201,-0.629889 0.326267,-0.944457 0.102788,-0.311594 0.198592,-0.628704 0.291914,-0.944456 0.106084,-0.358339 0.215305,-0.718353 0.309083,-1.081836 0.07293,-0.28347 0.140794,-0.572098 0.206072,-0.858595 0.05262,-0.23 0.106934,-0.455001 0.154539,-0.686867 0.01987,-0.09703 0.03257,-0.194647 0.05154,-0.291941 0.0821,-0.420664 0.157842,-0.844327 0.223193,-1.27073 0.03742,-0.244404 0.07134,-0.492182 0.10301,-0.738389 0.03707,-0.286098 0.07354,-0.570171 0.103011,-0.858599 0.005,-0.05154 0.01222,-0.103011 0.01752,-0.154539 0.04467,-0.460095 0.07818,-0.925292 0.103011,-1.390928 0.0011,-0.02308 -0.0011,-0.04575 0,-0.06869 0.0096,-0.198213 0.01073,-0.401853 0.01752,-0.601024 0.01073,-0.346738 0.01752,-0.698003 0.01752,-1.047482 0,-0.361199 -0.0062,-0.723533 -0.01752,-1.081834 -0.0024,-0.06351 -0.01454,-0.125465 -0.01752,-0.188893 -0.0096,-0.258457 -0.01813,-0.51592 -0.03442,-0.772736 -0.0024,-0.03442 0.0024,-0.06869 0,-0.103011 -0.02484,-0.371426 -0.04862,-0.748324 -0.0859,-1.116177 -0.0339,-0.333983 -0.0761,-0.665106 -0.120178,-0.995972 -0.02658,-0.202477 -0.05519,-0.399716 -0.0859,-0.601011 -0.0225,-0.14466 -0.04468,-0.28531 -0.06869,-0.429295 -0.0631,-0.378337 -0.129908,-0.759356 -0.206159,-1.1332 -0.06241,-0.30518 -0.13493,-0.608152 -0.206071,-0.910105 -0.05044,-0.214485 -0.09984,-0.42257 -0.154538,-0.63537 -0.116611,-0.454052 -0.241863,-0.910572 -0.377784,-1.356581 -0.01603,-0.052 -0.03535,-0.102664 -0.05154,-0.154556 -0.157182,-0.502338 -0.319206,-1.001973 -0.49911,-1.49364 -0.178964,-0.489051 -0.381946,-0.964928 -0.583851,-1.442438 -0.201756,-0.477155 -0.411336,-0.943134 -0.63536,-1.4081 -0.03573,-0.07391 -0.06682,-0.1496 -0.103011,-0.223222 -0.190031,-0.386704 -0.395947,-0.772823 -0.601023,-1.15051 -0.116132,-0.213785 -0.222639,-0.424569 -0.343433,-0.635359 l -0.01752,0 C 55.180995,8.5743256 44.849027,2.1115489 32.998947,2.1115489 z m 0,5.5465281 c 0.909297,0 1.810406,0.047476 2.695987,0.1373749 0.425818,0.043215 0.851132,0.1084335 1.270723,0.1717102 0.01665,0.00249 0.03477,-0.00248 0.05154,0 0.03991,0.00611 0.08027,0.011065 0.120179,0.017246 0.20312,0.031932 0.39948,0.066441 0.601023,0.1030477 0.246333,0.044784 0.494532,0.085785 0.738387,0.1373748 0.243178,0.051507 0.480567,0.1135704 0.721229,0.1717119 0.551328,0.1332286 1.094159,0.2791736 1.631326,0.4464733 0.400256,0.1244897 0.793053,0.2521202 1.184863,0.3949562 0.01073,0.005 0.0228,0.01289 0.03442,0.01725 0.005,0.0025 0.01222,-0.0025 0.01752,0 0.09084,0.03327 0.184452,0.06877 0.274763,0.103048 0.143983,0.0547 0.286536,0.114677 0.429296,0.17171 0.266729,0.106699 0.52757,0.211244 0.789905,0.326265 0.07499,0.03292 0.148623,0.06953 0.223221,0.103014 0.32786,0.147452 0.65822,0.303352 0.978797,0.463645 0.121517,0.06081 0.240141,0.126274 0.360614,0.188891 0.269735,0.14015 0.542894,0.280198 0.807079,0.429306 0.244289,0.137937 0.481826,0.283849 0.721216,0.429292 0.132881,0.08076 0.26363,0.157396 0.394955,0.240402 0.09304,0.05876 0.182463,0.128967 0.274762,0.188891 0.250541,0.162765 0.511027,0.326997 0.755557,0.497982 0.02338,0.01602 0.0455,0.03524 0.06869,0.05154 0.05718,0.04026 0.114909,0.07952 0.171743,0.120178 0.29773,0.21317 0.587463,0.427448 0.875767,0.65253 0.190381,0.148575 0.380535,0.292842 0.566672,0.446474 0.150409,0.124208 0.298888,0.250365 0.446468,0.377787 0.170251,0.146989 0.331604,0.295222 0.497983,0.446458 0.156522,0.142298 0.310567,0.283384 0.463649,0.429308 0.153944,0.146674 0.313289,0.29611 0.463643,0.446461 0.156751,0.156817 0.310878,0.320097 0.463642,0.480813 1.148051,1.208042 2.186785,2.523797 3.090945,3.932371 0.06534,0.101826 0.124937,0.206334 0.188893,0.309095 0.09802,0.15733 0.19713,0.321298 0.291911,0.480814 0.02543,0.04356 0.04306,0.09377 0.06869,0.137358 0.12824,0.218752 0.255742,0.429832 0.377784,0.652541 0.01602,0.02892 0.03573,0.05678 0.05154,0.0859 0.129907,0.239263 0.255128,0.477575 0.377767,0.721221 0.06918,0.137376 0.139259,0.273391 0.206102,0.412124 0.06591,0.137028 0.125233,0.27377 0.188893,0.412134 0.115172,0.24987 0.21881,0.501521 0.326263,0.755558 0.134665,0.318227 0.2726,0.637159 0.394954,0.961627 0.02805,0.07515 0.05826,0.147782 0.0859,0.223222 0.07906,0.215568 0.149682,0.434399 0.223223,0.652535 0.06475,0.192222 0.128504,0.389654 0.188922,0.58384 0.03059,0.09837 0.05642,0.19304 0.0859,0.291912 0.04074,0.136418 0.0816,0.274793 0.120178,0.412121 0.04588,0.164003 0.09449,0.332714 0.137408,0.497982 0.005,0.01752 0.01255,0.03403 0.01752,0.05154 0.07332,0.285397 0.142149,0.569572 0.2061,0.858597 0.03059,0.137606 0.0575,0.273711 0.0859,0.412125 0.005,0.02337 0.01255,0.04565 0.01752,0.06865 0.08199,0.405954 0.142991,0.806731 0.206072,1.219208 0.05626,0.368473 0.113686,0.742833 0.154538,1.116171 0.0076,0.06838 0.0096,0.137508 0.01752,0.206043 0.04037,0.397203 0.0634,0.799806 0.0859,1.202026 0.0024,0.04611 0.01454,0.09118 0.01752,0.137408 0.02308,0.449964 0.03442,0.900919 0.03442,1.356582 0,0.337993 -0.005,0.678228 -0.01752,1.013146 -0.005,0.114182 -0.01073,0.22971 -0.01752,0.343436 -2.92e-4,0.0062 2.95e-4,0.01073 0,0.01752 -0.02132,0.414582 -0.06276,0.827067 -0.103011,1.236373 -0.0024,0.02805 0.0024,0.05765 0,0.0859 -0.0096,0.102284 -0.02308,0.207212 -0.03442,0.309084 -0.07442,0.655713 -0.17028,1.300231 -0.291914,1.940434 -0.02308,0.12102 -0.04406,0.240198 -0.06869,0.3606 -0.04049,0.197746 -0.09254,0.387743 -0.137409,0.583855 -0.0525,0.229621 -0.09609,0.459617 -0.154553,0.686883 -0.0225,0.0859 -0.04576,0.171974 -0.06869,0.257553 -0.05702,0.213024 -0.126604,0.424536 -0.188891,0.635366 -0.02834,0.09703 -0.05607,0.195319 -0.0859,0.29191 -0.0076,0.0228 -0.0096,0.04626 -0.01752,0.06869 -0.01957,0.0634 -0.04858,0.125745 -0.06869,0.188921 -0.106934,0.334747 -0.206423,0.66719 -0.326275,0.995964 -0.005,0.01222 -0.01289,0.0228 -0.01752,0.03442 -0.06548,0.179017 -0.13683,0.355158 -0.206041,0.532332 -0.08728,0.223283 -0.181618,0.44944 -0.274764,0.669699 -0.02934,0.06905 -0.05604,0.137359 -0.0859,0.206103 -0.07561,0.174719 -0.161081,0.34247 -0.240403,0.515167 -0.05409,0.117683 -0.09875,0.24379 -0.154538,0.3606 -0.01322,0.02775 -0.02103,0.058 -0.03428,0.0859 -0.12406,0.257612 -0.26284,0.502665 -0.394957,0.755558 -0.06523,0.124853 -0.121748,0.254076 -0.188921,0.377783 -0.08393,0.154522 -0.170719,0.311007 -0.257552,0.463643 -0.126191,0.221467 -0.262548,0.435131 -0.394955,0.652534 -0.03086,0.05067 -0.05469,0.104139 -0.08593,0.154538 -0.07123,0.115173 -0.150326,0.229475 -0.223252,0.343421 -0.09595,0.149978 -0.19307,0.298615 -0.291942,0.446476 -4.724016,7.071213 -12.769285,11.728425 -21.911337,11.728425 -11.623296,0 -21.4876,-7.532605 -24.9851376,-17.979003 -0.031822,-0.09519 -0.055113,-0.196262 -0.08587,-0.29195 C 7.8714726,41.893984 7.8101656,41.717774 7.7568431,41.538886 7.7060249,41.368725 7.6668748,41.195344 7.6194677,41.023734 7.5670514,40.834082 7.4959854,40.648399 7.4477837,40.457062 7.403202,40.279974 7.3685782,40.103229 7.3275895,39.924732 7.2841477,39.735957 7.246741,39.548368 7.2073942,39.358063 c -0.0038,-0.01752 -0.013378,-0.03428 -0.016943,-0.05154 -0.021034,-0.102788 -0.031696,-0.205896 -0.051544,-0.309076 -0.062911,-0.327308 -0.1210705,-0.647294 -0.171712,-0.9788 C 6.9290732,37.769276 6.8952322,37.514709 6.8641844,37.26309 6.8508064,37.153821 6.8419774,37.04647 6.8298284,36.936812 6.8172774,36.82263 6.8067494,36.70798 6.7954724,36.593381 6.7554844,36.183999 6.7134504,35.771666 6.6924617,35.357 c -0.021916,-0.431953 -0.033517,-0.867862 -0.034356,-1.305059 -3.24e-5,-0.01752 0,-0.03428 0,-0.05154 0,-5.1037 1.4540778,-9.873666 3.9667123,-13.909248 0.273008,-0.438681 0.560678,-0.867447 0.858387,-1.28816 0.03771,-0.05324 0.0821,-0.101558 0.120195,-0.154539 0.298678,-0.415822 0.605383,-0.822413 0.927222,-1.219421 0.314473,-0.387933 0.626024,-0.781271 0.961628,-1.150513 0.03272,-0.03597 0.07013,-0.06732 0.103011,-0.10301 0.370197,-0.403007 0.755959,-0.78848 1.150418,-1.167717 0.39446,-0.379244 0.801793,-0.744706 1.219202,-1.099006 0.367873,-0.312241 0.748534,-0.618128 1.133353,-0.910102 0.04539,-0.03451 0.09164,-0.06892 0.137358,-0.103014 0.0062,-0.005 0.01106,-0.01222 0.01695,-0.01695 0.07845,-0.05861 0.161245,-0.11395 0.240403,-0.17174 0.353583,-0.258138 0.715214,-0.514957 1.081836,-0.755573 0.02775,-0.0184 0.058,-0.03342 0.0859,-0.05154 0.411131,-0.267605 0.826975,-0.527881 1.253554,-0.772727 0.06655,-0.03819 0.139108,-0.06533 0.206069,-0.103014 0.411794,-0.231345 0.828434,-0.460229 1.25354,-0.669711 0.04136,-0.02045 0.07868,-0.04845 0.120178,-0.06865 0.443466,-0.215627 0.899619,-0.409994 1.356582,-0.601021 0.216005,-0.09034 0.433647,-0.17291 0.652527,-0.257582 0.207065,-0.08004 0.408634,-0.165489 0.618191,-0.240402 0.296936,-0.106236 0.608363,-0.1962252 0.910105,-0.2919416 0.198826,-0.063021 0.400182,-0.1304531 0.601025,-0.1888921 0.222606,-0.064739 0.444699,-0.1299245 0.669699,-0.188892 0.108698,-0.028347 0.217028,-0.058759 0.326262,-0.0859 0.348736,-0.086627 0.710613,-0.1678563 1.064669,-0.2404026 0.325946,-0.066705 0.648589,-0.1172214 0.978809,-0.171712 0.06917,-0.011065 0.136763,-0.023375 0.206072,-0.034394 0.04591,-0.00726 0.09142,-0.00991 0.137374,-0.017246 0.42507,-0.06436 0.856422,-0.1279092 1.287888,-0.1717399 0.425867,-0.043181 0.856285,-0.080284 1.287891,-0.1030477 0.468416,-0.024829 0.93349,-0.034394 1.408101,-0.034394 z m -12.793083,12.9648 -6.782907,11.676898 4.945514,0 10.646594,11.676908 2.610117,0 -10.663749,-11.676908 1.287892,0 10.663762,11.676908 6.31925,0 -0.03428,0.01752 -21.172976,0 -3.760647,6.490984 3.623281,0 19.45578,0 0.635344,-1.081836 1.974788,-3.400027 1.906083,-3.27984 -2.50711,1.20203 -10.612237,-11.625388 2.936396,-3.880846 18.511323,0 4.516215,-7.796055 -34.498376,0 z"
     id="path2994" />
  <path
     id="path7090"
     d="m 32.998896,1.1115489 c -17.614754,0 -31.8882556,14.2735011 -31.8882556,31.8882521 0,0.562094 0.00577,1.127887 0.03436,1.682845 0.027753,0.533607 0.065763,1.053467 0.1201946,1.579815 0.055125,0.533079 0.1247541,1.071997 0.2060722,1.596987 0.066028,0.426478 0.1406787,0.849986 0.2232506,1.270722 0.066391,0.34057 0.1461136,0.676539 0.2232524,1.013145 0.031668,0.137789 0.052482,0.274909 0.085868,0.412125 1.4848805,6.108128 4.7341689,11.529761 9.1698009,15.695136 0.0041,0.01073 0.01321,0.0228 0.01694,0.03442 0.08005,0.07501 0.159609,0.149038 0.2404,0.223254 0.03884,0.03573 0.08123,0.06755 0.120195,0.103011 0.241133,0.219218 0.490597,0.423529 0.738392,0.635359 0.309041,0.264097 0.625377,0.520412 0.944459,0.77273 0.137227,0.108565 0.273066,0.21992 0.412124,0.326271 0.276865,0.211711 0.557509,0.415453 0.841423,0.618195 0.05286,0.03769 0.101446,0.08272 0.154538,0.120178 0.341513,0.240695 0.696279,0.459435 1.047484,0.68688 0.183837,0.119187 0.363124,0.245164 0.549501,0.360612 0.102284,0.06326 0.206072,0.12672 0.309098,0.18892 0.407192,0.245838 0.817576,0.476176 1.236381,0.70404 0.01372,0.0076 0.02074,0.02658 0.03439,0.03442 0.422254,0.228949 0.854423,0.442378 1.287889,0.65253 0.03927,0.019 0.08075,0.03258 0.120177,0.05154 0.376659,0.180739 0.765825,0.348977 1.150513,0.515155 0.162386,0.07012 0.317075,0.155794 0.480813,0.223223 0.142197,0.05861 0.286069,0.115172 0.429302,0.171739 0.351147,0.138697 0.70754,0.268481 1.064654,0.394953 0.27447,0.09727 0.546394,0.20204 0.82426,0.291912 0.135475,0.04379 0.275873,0.07819 0.412119,0.120178 0.419066,0.129313 0.844479,0.248262 1.270723,0.360602 0.08064,0.02132 0.159445,0.04809 0.240403,0.06865 0.347024,0.08845 0.696024,0.163361 1.047482,0.240402 0.143686,0.03147 0.284902,0.07343 0.429305,0.103011 0.470697,0.09631 0.947261,0.182289 1.42527,0.257552 0.04591,0.0076 0.09127,0.0096 0.137375,0.01752 0.06892,0.0096 0.137028,0.02425 0.206072,0.03428 0.460427,0.06735 0.924338,0.124325 1.390931,0.171713 0.342501,0.03489 0.684676,0.04477 1.030315,0.06865 0.195903,0.01338 0.387012,0.0415 0.583839,0.05154 0.543507,0.02747 1.098136,0.03442 1.648496,0.03442 0.614091,0 1.214732,-0.01752 1.820234,-0.05154 0.474029,-0.02657 0.956999,-0.05566 1.425269,-0.103011 0.005,-5.51e-4 0.01073,5.51e-4 0.01752,0 0.06313,-0.0062 0.125894,-0.0096 0.188919,-0.01752 0.377323,-0.04064 0.742922,-0.100832 1.116177,-0.154588 0.259597,-0.03733 0.515166,-0.07674 0.772738,-0.120178 0.114909,-0.01958 0.228891,-0.03086 0.343435,-0.05154 0.09191,-0.01665 0.183078,-0.03428 0.274761,-0.05154 0.276926,-0.05235 0.549905,-0.112232 0.824258,-0.17174 0.647553,-0.140563 1.291026,-0.301579 1.923255,-0.480822 0.0804,-0.02308 0.160369,-0.04538 0.240401,-0.06869 0.684968,-0.199966 1.361213,-0.408673 2.026287,-0.652533 0.02425,-0.0084 0.04467,-0.02571 0.06865,-0.03441 0.151317,-0.05592 0.296233,-0.113687 0.446473,-0.171742 0.189594,-0.07332 0.378838,-0.146526 0.566673,-0.223222 0.120525,-0.04933 0.240724,-0.103759 0.360614,-0.154538 0.472531,-0.200228 0.947527,-0.413359 1.408089,-0.635357 0.466176,-0.224743 0.920506,-0.457708 1.373758,-0.704053 0.424692,-0.230789 0.84078,-0.471999 1.253552,-0.721216 0.02834,-0.01752 0.05739,-0.03416 0.0859,-0.05154 0.121633,-0.07392 0.240111,-0.147815 0.360605,-0.223221 0.005,-0.0062 0.01073,-0.01073 0.01752,-0.01752 4.578993,-2.871588 8.382296,-6.866398 11.007208,-11.608219 0.03466,-0.06252 0.06877,-0.126043 0.103011,-0.18892 0.0062,-0.01073 0.01073,-0.02338 0.01752,-0.03442 0.117221,-0.215859 0.231053,-0.433697 0.343434,-0.652545 0.16695,-0.32488 0.324781,-0.64758 0.480815,-0.978794 0.123614,-0.262549 0.244025,-0.523508 0.360615,-0.789906 0.0525,-0.119682 0.103525,-0.240109 0.154538,-0.360617 0.07685,-0.181792 0.149649,-0.366 0.223251,-0.549501 0.0076,-0.01665 0.0096,-0.03493 0.01752,-0.05154 0.116263,-0.291386 0.235553,-0.580232 0.343443,-0.875768 0.113455,-0.310186 0.222201,-0.629889 0.326267,-0.944457 0.102788,-0.311594 0.198592,-0.628704 0.291914,-0.944456 0.106084,-0.358339 0.215305,-0.718353 0.309083,-1.081836 0.07293,-0.28347 0.140794,-0.572098 0.206072,-0.858595 0.05262,-0.23 0.106934,-0.455001 0.154539,-0.686867 0.01987,-0.09703 0.03257,-0.194647 0.05154,-0.291941 0.0821,-0.420664 0.157842,-0.844327 0.223193,-1.27073 0.03742,-0.244404 0.07134,-0.492182 0.10301,-0.738389 0.03707,-0.286098 0.07354,-0.570171 0.103011,-0.858599 0.005,-0.05154 0.01222,-0.103011 0.01752,-0.154539 0.04467,-0.460095 0.07818,-0.925292 0.103011,-1.390928 0.0011,-0.02308 -0.0011,-0.04575 0,-0.06869 0.0096,-0.198213 0.01073,-0.401853 0.01752,-0.601024 0.01073,-0.346738 0.01752,-0.698003 0.01752,-1.047482 0,-0.361199 -0.0062,-0.723533 -0.01752,-1.081834 -0.0024,-0.06351 -0.01454,-0.125465 -0.01752,-0.188893 -0.0096,-0.258457 -0.01813,-0.51592 -0.03442,-0.772736 -0.0024,-0.03442 0.0024,-0.06869 0,-0.103011 -0.02484,-0.371426 -0.04862,-0.748324 -0.0859,-1.116177 -0.0339,-0.333983 -0.0761,-0.665106 -0.120178,-0.995972 -0.02658,-0.202477 -0.05519,-0.399716 -0.0859,-0.601011 -0.0225,-0.14466 -0.04468,-0.28531 -0.06869,-0.429295 -0.0631,-0.378337 -0.129908,-0.759356 -0.206159,-1.1332 -0.06241,-0.30518 -0.13493,-0.608152 -0.206071,-0.910105 -0.05044,-0.214485 -0.09984,-0.42257 -0.154538,-0.63537 -0.116611,-0.454052 -0.241863,-0.910572 -0.377784,-1.356581 -0.01603,-0.052 -0.03535,-0.102664 -0.05154,-0.154556 -0.157182,-0.502338 -0.319206,-1.001973 -0.49911,-1.49364 -0.178964,-0.489051 -0.381946,-0.964928 -0.583851,-1.442438 -0.201756,-0.477155 -0.411336,-0.943134 -0.63536,-1.4081 -0.03573,-0.07391 -0.06682,-0.1496 -0.103011,-0.223222 -0.190031,-0.386704 -0.395947,-0.772823 -0.601023,-1.15051 -0.116132,-0.213785 -0.222639,-0.424569 -0.343433,-0.635359 l -0.01752,0 C 55.180995,7.5743256 44.849027,1.1115489 32.998947,1.1115489 z m 0,5.5465281 c 0.909297,0 1.810406,0.047476 2.695987,0.1373749 0.425818,0.043215 0.851132,0.1084335 1.270723,0.1717102 0.01665,0.00249 0.03477,-0.00248 0.05154,0 0.03991,0.00611 0.08027,0.011065 0.120179,0.017246 0.20312,0.031932 0.39948,0.066441 0.601023,0.1030477 0.246333,0.044784 0.494532,0.085785 0.738387,0.1373748 0.243178,0.051507 0.480567,0.1135704 0.721229,0.1717119 0.551328,0.1332286 1.094159,0.2791736 1.631326,0.4464733 0.400256,0.1244897 0.793053,0.2521198 1.184863,0.394956 0.01073,0.00495 0.0228,0.012885 0.03442,0.017246 0.005,0.00249 0.01222,-0.00249 0.01752,0 0.09084,0.033271 0.184452,0.06877 0.274763,0.1030477 0.143983,0.054696 0.286536,0.1146773 0.429296,0.1717103 0.266729,0.106699 0.52757,0.2112444 0.789905,0.3262653 0.07499,0.032923 0.148623,0.069531 0.223221,0.1030142 0.32786,0.1474516 0.65822,0.3033513 0.978797,0.4636451 0.121517,0.060808 0.240141,0.1262738 0.360614,0.1888904 0.269735,0.1401501 0.542894,0.2801977 0.807079,0.4293061 0.244289,0.137937 0.481826,0.283849 0.721216,0.429292 0.132881,0.08076 0.26363,0.157396 0.394955,0.240402 0.09304,0.05876 0.182463,0.128967 0.274762,0.188891 0.250541,0.162765 0.511027,0.326997 0.755557,0.497982 0.02338,0.01602 0.0455,0.03524 0.06869,0.05154 0.05718,0.04026 0.114909,0.07952 0.171743,0.120178 0.29773,0.21317 0.587463,0.427448 0.875767,0.65253 0.190381,0.148575 0.380535,0.292842 0.566672,0.446474 0.150409,0.124208 0.298888,0.250365 0.446468,0.377787 0.170251,0.146989 0.331604,0.295222 0.497983,0.446458 0.156522,0.142298 0.310567,0.283384 0.463649,0.429308 0.153944,0.146674 0.313289,0.29611 0.463643,0.446461 0.156751,0.156817 0.310878,0.320097 0.463642,0.480813 1.148051,1.208042 2.186785,2.523797 3.090945,3.932371 0.06534,0.101826 0.124937,0.206334 0.188893,0.309095 0.09802,0.15733 0.19713,0.321298 0.291911,0.480814 0.02543,0.04356 0.04306,0.09377 0.06869,0.137358 0.12824,0.218752 0.255742,0.429832 0.377784,0.652541 0.01602,0.02892 0.03573,0.05678 0.05154,0.0859 0.129907,0.239263 0.255128,0.477575 0.377767,0.721221 0.06918,0.137376 0.139259,0.273391 0.206102,0.412124 0.06591,0.137028 0.125233,0.27377 0.188893,0.412134 0.115172,0.24987 0.21881,0.501521 0.326263,0.755558 0.134665,0.318227 0.2726,0.637159 0.394954,0.961627 0.02805,0.07515 0.05826,0.147782 0.0859,0.223222 0.07906,0.215568 0.149682,0.434399 0.223223,0.652535 0.06475,0.192222 0.128504,0.389654 0.188922,0.58384 0.03059,0.09837 0.05642,0.19304 0.0859,0.291912 0.04074,0.136418 0.0816,0.274793 0.120178,0.412121 0.04588,0.164003 0.09449,0.332714 0.137408,0.497982 0.005,0.01752 0.01255,0.03403 0.01752,0.05154 0.07332,0.285397 0.142149,0.569572 0.2061,0.858597 0.03059,0.137606 0.0575,0.273711 0.0859,0.412125 0.005,0.02337 0.01255,0.04565 0.01752,0.06865 0.08199,0.405954 0.142991,0.806731 0.206072,1.219208 0.05626,0.368473 0.113686,0.742833 0.154538,1.116171 0.0076,0.06838 0.0096,0.137508 0.01752,0.206043 0.04037,0.397203 0.0634,0.799806 0.0859,1.202026 0.0024,0.04611 0.01454,0.09118 0.01752,0.137408 0.02308,0.449964 0.03442,0.900919 0.03442,1.356582 0,0.337993 -0.005,0.678228 -0.01752,1.013146 -0.005,0.114182 -0.01073,0.22971 -0.01752,0.343436 -2.92e-4,0.0062 2.95e-4,0.01073 0,0.01752 -0.02132,0.414582 -0.06276,0.827067 -0.103011,1.236373 -0.0024,0.02805 0.0024,0.05765 0,0.0859 -0.0096,0.102284 -0.02308,0.207212 -0.03442,0.309084 -0.07442,0.655713 -0.17028,1.300231 -0.291914,1.940434 -0.02308,0.12102 -0.04406,0.240198 -0.06869,0.3606 -0.04049,0.197746 -0.09254,0.387743 -0.137409,0.583855 -0.0525,0.229621 -0.09609,0.459617 -0.154553,0.686883 -0.0225,0.0859 -0.04576,0.171974 -0.06869,0.257553 -0.05702,0.213024 -0.126604,0.424536 -0.188891,0.635366 -0.02834,0.09703 -0.05607,0.195319 -0.0859,0.29191 -0.0076,0.0228 -0.0096,0.04626 -0.01752,0.06869 -0.01957,0.0634 -0.04858,0.125745 -0.06869,0.188921 -0.106934,0.334747 -0.206423,0.66719 -0.326275,0.995964 -0.005,0.01222 -0.01289,0.0228 -0.01752,0.03442 -0.06548,0.179017 -0.13683,0.355158 -0.206041,0.532332 -0.08728,0.223283 -0.181618,0.44944 -0.274764,0.669699 -0.02934,0.06905 -0.05604,0.137359 -0.0859,0.206103 -0.07561,0.174719 -0.161081,0.34247 -0.240403,0.515167 -0.05409,0.117683 -0.09875,0.24379 -0.154538,0.3606 -0.01322,0.02775 -0.02103,0.058 -0.03428,0.0859 -0.12406,0.257612 -0.26284,0.502665 -0.394957,0.755558 -0.06523,0.124853 -0.121748,0.254076 -0.188921,0.377783 -0.08393,0.154522 -0.170719,0.311007 -0.257552,0.463643 -0.126191,0.221467 -0.262548,0.435131 -0.394955,0.652534 -0.03086,0.05067 -0.05469,0.104139 -0.08593,0.154538 -0.07123,0.115173 -0.150326,0.229475 -0.223252,0.343421 -0.09595,0.149978 -0.19307,0.298615 -0.291942,0.446476 -4.724016,7.071213 -12.769285,11.728425 -21.911337,11.728425 -11.623296,0 -21.4876,-7.532605 -24.9851376,-17.979003 -0.031822,-0.09519 -0.055113,-0.196262 -0.08587,-0.29195 C 7.8714726,40.893984 7.8101656,40.717774 7.7568431,40.538886 7.7060249,40.368725 7.6668748,40.195344 7.6194677,40.023734 7.5670514,39.834082 7.4959854,39.648399 7.4477837,39.457062 7.403202,39.279974 7.3685782,39.103229 7.3275895,38.924732 7.2841477,38.735957 7.246741,38.548368 7.2073942,38.358063 c -0.0038,-0.01752 -0.013378,-0.03428 -0.016943,-0.05154 -0.021034,-0.102788 -0.031696,-0.205896 -0.051544,-0.309076 -0.062911,-0.327308 -0.1210705,-0.647294 -0.171712,-0.9788 -0.038122,-0.249371 -0.071963,-0.503938 -0.1030108,-0.755557 -0.013378,-0.109269 -0.022207,-0.21662 -0.034356,-0.326278 -0.012551,-0.114182 -0.023079,-0.228832 -0.034356,-0.343431 -0.039988,-0.409382 -0.082022,-0.821715 -0.1030107,-1.236381 -0.021916,-0.431953 -0.033517,-0.867862 -0.034356,-1.305059 -3.24e-5,-0.01752 0,-0.03428 0,-0.05154 0,-5.1037 1.4540778,-9.873666 3.9667118,-13.909248 0.273008,-0.438681 0.560678,-0.867447 0.858387,-1.28816 0.03771,-0.05324 0.0821,-0.101558 0.120195,-0.154539 0.298678,-0.415822 0.605383,-0.822413 0.927222,-1.219421 0.314473,-0.387933 0.626024,-0.781271 0.961628,-1.150513 0.03272,-0.03597 0.07013,-0.06732 0.103011,-0.10301 0.370197,-0.403007 0.755959,-0.78848 1.150418,-1.167717 0.39446,-0.379244 0.801793,-0.744706 1.219202,-1.099006 0.367873,-0.312241 0.748534,-0.618128 1.133353,-0.910102 0.04539,-0.03451 0.09164,-0.06892 0.137358,-0.103014 0.0062,-0.005 0.01106,-0.01222 0.01695,-0.01695 0.07845,-0.05861 0.161245,-0.11395 0.240403,-0.17174 0.353583,-0.258138 0.715214,-0.514957 1.081836,-0.755573 0.02775,-0.0184 0.058,-0.03342 0.0859,-0.05154 0.411131,-0.267605 0.826975,-0.527881 1.253554,-0.772727 0.06655,-0.03819 0.139108,-0.06533 0.206069,-0.103014 0.411794,-0.2313454 0.828434,-0.4602292 1.253541,-0.6697109 0.04136,-0.020451 0.07868,-0.048451 0.120178,-0.068654 0.443466,-0.215627 0.899619,-0.4099936 1.356582,-0.6010215 0.216005,-0.090344 0.433647,-0.1729097 0.652527,-0.2575812 0.207065,-0.080036 0.408634,-0.1654891 0.618191,-0.2404026 0.296936,-0.1062362 0.608363,-0.196225 0.910105,-0.2919414 0.198826,-0.063021 0.400182,-0.1304531 0.601025,-0.1888921 0.222606,-0.064739 0.444699,-0.1299245 0.669699,-0.188892 0.108698,-0.028347 0.217027,-0.058759 0.326262,-0.0859 0.348735,-0.086627 0.710613,-0.1678563 1.064668,-0.2404026 0.325947,-0.066705 0.64859,-0.1172214 0.97881,-0.171712 0.06917,-0.011065 0.136763,-0.023375 0.206072,-0.034394 0.04591,-0.00726 0.09142,-0.00991 0.137374,-0.017246 0.425069,-0.06436 0.856421,-0.1279092 1.287888,-0.1717399 0.425867,-0.043181 0.856285,-0.080284 1.287891,-0.1030477 0.468416,-0.024829 0.93349,-0.034394 1.408101,-0.034394 z m -12.793083,12.9648 -6.782907,11.676898 4.945514,0 10.646594,11.676908 2.610117,0 -10.663749,-11.676908 1.287892,0 10.663762,11.676908 6.31925,0 -0.03428,0.01752 -21.172976,0 -3.760647,6.490984 3.623281,0 19.45578,0 0.635344,-1.081836 1.974788,-3.400027 1.906083,-3.27984 -2.50711,1.20203 -10.612237,-11.625388 2.936396,-3.880846 18.511323,0 4.516215,-7.796055 -34.498376,0 z"
     style="fill:#ffffff;fill-opacity:1;stroke:none"
     inkscape:connector-curvature="0" />
</svg>
